G04 #@! TF.GenerationSoftware,KiCad,Pcbnew,5.1.4-e60b266~84~ubuntu18.04.1*
G04 #@! TF.CreationDate,2019-10-21T15:00:49-03:00*
G04 #@! TF.ProjectId,projetoDeee891,70726f6a-6574-46f4-9465-65653839312e,rev?*
G04 #@! TF.SameCoordinates,Original*
G04 #@! TF.FileFunction,Copper,L2,Bot*
G04 #@! TF.FilePolarity,Positive*
%FSLAX46Y46*%
G04 Gerber Fmt 4.6, Leading zero omitted, Abs format (unit mm)*
G04 Created by KiCad (PCBNEW 5.1.4-e60b266~84~ubuntu18.04.1) date 2019-10-21 15:00:49*
%MOMM*%
%LPD*%
G04 APERTURE LIST*
%ADD10C,1.651000*%
%ADD11C,1.524000*%
%ADD12C,1.400000*%
%ADD13O,1.400000X1.400000*%
%ADD14R,1.600000X1.600000*%
%ADD15O,1.600000X1.600000*%
%ADD16C,0.762000*%
%ADD17C,0.250000*%
%ADD18C,0.254000*%
G04 APERTURE END LIST*
D10*
X99060000Y-119380000D03*
X99060000Y-124460000D03*
X99060000Y-129540000D03*
D11*
X99814001Y-53340000D03*
X99814001Y-58420000D03*
X107434001Y-58420000D03*
X107434001Y-53340000D03*
X107188000Y-66040000D03*
X107188000Y-71120000D03*
X99568000Y-71120000D03*
X99568000Y-66040000D03*
D12*
X113030000Y-55880000D03*
D13*
X113030000Y-50800000D03*
D11*
X99568000Y-78740000D03*
X99568000Y-83820000D03*
X107188000Y-83820000D03*
X107188000Y-78740000D03*
D10*
X167640000Y-76200000D03*
X167640000Y-71120000D03*
X167640000Y-66040000D03*
X167640000Y-91440000D03*
X167640000Y-96520000D03*
X167640000Y-101600000D03*
D11*
X107188000Y-39370000D03*
X107188000Y-44450000D03*
X99568000Y-44450000D03*
X99568000Y-39370000D03*
X107188000Y-91440000D03*
X107188000Y-96520000D03*
X99568000Y-96520000D03*
X99568000Y-91440000D03*
D10*
X167640000Y-39370000D03*
X167640000Y-44450000D03*
X167640000Y-49530000D03*
D13*
X113030000Y-38100000D03*
D12*
X113030000Y-43180000D03*
D10*
X167640000Y-127000000D03*
X167640000Y-121920000D03*
X167640000Y-116840000D03*
D13*
X113030000Y-76200000D03*
D12*
X113030000Y-81280000D03*
X113030000Y-96520000D03*
D13*
X113030000Y-91440000D03*
D14*
X127000000Y-81280000D03*
D15*
X142240000Y-48260000D03*
X127000000Y-78740000D03*
X142240000Y-50800000D03*
X127000000Y-76200000D03*
X142240000Y-53340000D03*
X127000000Y-73660000D03*
X142240000Y-55880000D03*
X127000000Y-71120000D03*
X142240000Y-58420000D03*
X127000000Y-68580000D03*
X142240000Y-60960000D03*
X127000000Y-66040000D03*
X142240000Y-63500000D03*
X127000000Y-63500000D03*
X142240000Y-66040000D03*
X127000000Y-60960000D03*
X142240000Y-68580000D03*
X127000000Y-58420000D03*
X142240000Y-71120000D03*
X127000000Y-55880000D03*
X142240000Y-73660000D03*
X127000000Y-53340000D03*
X142240000Y-76200000D03*
X127000000Y-50800000D03*
X142240000Y-78740000D03*
X127000000Y-48260000D03*
X142240000Y-81280000D03*
X127000000Y-45720000D03*
X142240000Y-45720000D03*
D12*
X113030000Y-67310000D03*
D13*
X113030000Y-62230000D03*
D16*
X99060000Y-124460000D02*
X111760000Y-111760000D01*
X111760000Y-111760000D02*
X137160000Y-111760000D01*
X137160000Y-58420000D02*
X142240000Y-53340000D01*
X137160000Y-111760000D02*
X137160000Y-58420000D01*
X140677999Y-100037999D02*
X166878001Y-126238001D01*
X142240000Y-78740000D02*
X140677999Y-80302001D01*
X140677999Y-80302001D02*
X140677999Y-100037999D01*
X166878001Y-126238001D02*
X167640000Y-127000000D01*
X136016990Y-82676990D02*
X136016990Y-101473010D01*
X127000000Y-73660000D02*
X136016990Y-82676990D01*
X136016990Y-101473010D02*
X128270000Y-109220000D01*
X99821999Y-118618001D02*
X99060000Y-119380000D01*
X109220000Y-109220000D02*
X99821999Y-118618001D01*
X109855000Y-109220000D02*
X109220000Y-109220000D01*
X128270000Y-109220000D02*
X109855000Y-109220000D01*
X166115999Y-66771521D02*
X170815000Y-71470522D01*
X170815000Y-73025000D02*
X167640000Y-76200000D01*
X170815000Y-71470522D02*
X170815000Y-73025000D01*
X167640000Y-49530000D02*
X166115999Y-51054001D01*
X166115999Y-51054001D02*
X166115999Y-66771521D01*
X166115999Y-92171521D02*
X169829478Y-95885000D01*
X166115999Y-84074001D02*
X166115999Y-92171521D01*
X170815000Y-73025000D02*
X170815000Y-79375000D01*
X170815000Y-79375000D02*
X166115999Y-84074001D01*
X169829478Y-95885000D02*
X169829478Y-100045522D01*
X169194478Y-100045522D02*
X167640000Y-101600000D01*
X169829478Y-100045522D02*
X169194478Y-100045522D01*
X167640000Y-101600000D02*
X165100000Y-104140000D01*
X165100000Y-117124478D02*
X170180000Y-122204478D01*
X165100000Y-104140000D02*
X165100000Y-117124478D01*
X170180000Y-122204478D02*
X170180000Y-125095000D01*
X169545000Y-125095000D02*
X167640000Y-127000000D01*
X170180000Y-125095000D02*
X169545000Y-125095000D01*
X169164001Y-48005999D02*
X168401999Y-48768001D01*
X169164001Y-43718479D02*
X169164001Y-48005999D01*
X168401999Y-48768001D02*
X167640000Y-49530000D01*
X168371521Y-42925999D02*
X169164001Y-43718479D01*
X142722239Y-42925999D02*
X168371521Y-42925999D01*
X136016990Y-49631248D02*
X142722239Y-42925999D01*
X136016990Y-101473010D02*
X136016990Y-49631248D01*
X153670000Y-44450000D02*
X167640000Y-44450000D01*
X142240000Y-55880000D02*
X153670000Y-44450000D01*
X99568000Y-91440000D02*
X107188000Y-91440000D01*
X107188000Y-91440000D02*
X113030000Y-91440000D01*
X126200001Y-71919999D02*
X127000000Y-71120000D01*
X125437999Y-72682001D02*
X126200001Y-71919999D01*
X125437999Y-79032001D02*
X125437999Y-72682001D01*
X113030000Y-91440000D02*
X125437999Y-79032001D01*
X154940000Y-71120000D02*
X142240000Y-58420000D01*
X167640000Y-71120000D02*
X154940000Y-71120000D01*
X120650000Y-68580000D02*
X127000000Y-68580000D01*
X113030000Y-76200000D02*
X120650000Y-68580000D01*
X109728000Y-76200000D02*
X107188000Y-78740000D01*
X113030000Y-76200000D02*
X109728000Y-76200000D01*
X107188000Y-78740000D02*
X99568000Y-78740000D01*
X147828010Y-66548010D02*
X143039999Y-61759999D01*
X147828010Y-75499992D02*
X147828010Y-66548010D01*
X143039999Y-61759999D02*
X142240000Y-60960000D01*
X167640000Y-95311982D02*
X147828010Y-75499992D01*
X167640000Y-96520000D02*
X167640000Y-95311982D01*
X113030000Y-62230000D02*
X118745000Y-62230000D01*
X122555000Y-66040000D02*
X127000000Y-66040000D01*
X118745000Y-62230000D02*
X122555000Y-66040000D01*
X110998000Y-62230000D02*
X107188000Y-66040000D01*
X113030000Y-62230000D02*
X110998000Y-62230000D01*
X107188000Y-66040000D02*
X99568000Y-66040000D01*
X142989761Y-64477999D02*
X146685000Y-68173238D01*
X142240000Y-63500000D02*
X141262001Y-64477999D01*
X141262001Y-64477999D02*
X142989761Y-64477999D01*
X146685000Y-100965000D02*
X167640000Y-121920000D01*
X146685000Y-68173238D02*
X146685000Y-100965000D01*
X114300000Y-50800000D02*
X127000000Y-63500000D01*
X113030000Y-50800000D02*
X114300000Y-50800000D01*
X99814001Y-53340000D02*
X107434001Y-53340000D01*
X110490000Y-53340000D02*
X113030000Y-50800000D01*
X107434001Y-53340000D02*
X110490000Y-53340000D01*
X126200001Y-60160001D02*
X127000000Y-60960000D01*
X120015000Y-53975000D02*
X126200001Y-60160001D01*
X120015000Y-45085000D02*
X120015000Y-53975000D01*
X113030000Y-38100000D02*
X120015000Y-45085000D01*
X99568000Y-39370000D02*
X107188000Y-39370000D01*
X111760000Y-39370000D02*
X113030000Y-38100000D01*
X107188000Y-39370000D02*
X111760000Y-39370000D01*
D17*
X113729999Y-55180001D02*
X113030000Y-55880000D01*
D16*
X141440001Y-74459999D02*
X142240000Y-73660000D01*
X139534989Y-76365011D02*
X139534989Y-114134989D01*
X142240000Y-73660000D02*
X139534989Y-76365011D01*
X139534989Y-114134989D02*
X139369978Y-114300000D01*
X139369978Y-114300000D02*
X114300000Y-114300000D01*
X113982500Y-114617500D02*
X113982500Y-124142500D01*
X113982500Y-114617500D02*
X114300000Y-114300000D01*
X99060000Y-129540000D02*
X113982500Y-114617500D01*
X113982500Y-124142500D02*
X103505000Y-134620000D01*
X103505000Y-134620000D02*
X99695000Y-134620000D01*
X101473010Y-108076990D02*
X113030000Y-96520000D01*
X95250000Y-114300000D02*
X101473010Y-108076990D01*
X139369978Y-114300000D02*
X140970000Y-114300000D01*
X140970000Y-114300000D02*
X163195000Y-136525000D01*
X163195000Y-136525000D02*
X171450000Y-136525000D01*
X171450000Y-136525000D02*
X171450000Y-118110000D01*
X168910000Y-118110000D02*
X167640000Y-116840000D01*
X171450000Y-118110000D02*
X168910000Y-118110000D01*
X170180000Y-91440000D02*
X167640000Y-91440000D01*
X167640000Y-116840000D02*
X172085000Y-112395000D01*
X172085000Y-93345000D02*
X170180000Y-91440000D01*
X172085000Y-112395000D02*
X172085000Y-93345000D01*
X172085000Y-93345000D02*
X172085000Y-66040000D01*
X172085000Y-66040000D02*
X167640000Y-66040000D01*
X172085000Y-43815000D02*
X167640000Y-39370000D01*
X172085000Y-66040000D02*
X172085000Y-43815000D01*
X95407478Y-114142522D02*
X95250000Y-114300000D01*
X94772478Y-55880000D02*
X94693739Y-55801261D01*
X94693739Y-130253739D02*
X94932500Y-130492500D01*
X94932500Y-130492500D02*
X95567500Y-130492500D01*
X99695000Y-134620000D02*
X95567500Y-130492500D01*
X95567500Y-130492500D02*
X95250000Y-130175000D01*
X107871261Y-48338739D02*
X94693739Y-48338739D01*
X94693739Y-55801261D02*
X94693739Y-48338739D01*
X113030000Y-43180000D02*
X107871261Y-48338739D01*
X113030000Y-55880000D02*
X113030000Y-57150000D01*
X107236261Y-62943739D02*
X94693739Y-62943739D01*
X113030000Y-57150000D02*
X107236261Y-62943739D01*
X94693739Y-68501261D02*
X94693739Y-62943739D01*
X94693739Y-62943739D02*
X94693739Y-55801261D01*
X113030000Y-67310000D02*
X113030000Y-69215000D01*
X113030000Y-69215000D02*
X106680000Y-75565000D01*
X106601261Y-75486261D02*
X94693739Y-75486261D01*
X106680000Y-75565000D02*
X106601261Y-75486261D01*
X94693739Y-68501261D02*
X94693739Y-75486261D01*
X112330001Y-81979999D02*
X112330001Y-83249999D01*
X113030000Y-81280000D02*
X112330001Y-81979999D01*
X112330001Y-83249999D02*
X108506261Y-87073739D01*
X108506261Y-87073739D02*
X94693739Y-87073739D01*
X94693739Y-75486261D02*
X94693739Y-81358739D01*
X94693739Y-81358739D02*
X94693739Y-87073739D01*
X94693739Y-87073739D02*
X94693739Y-130253739D01*
D18*
G36*
X172695001Y-42988160D02*
G01*
X169100500Y-39393660D01*
X169100500Y-39226153D01*
X169044374Y-38943988D01*
X168934279Y-38678194D01*
X168774445Y-38438985D01*
X168571015Y-38235555D01*
X168331806Y-38075721D01*
X168066012Y-37965626D01*
X167783847Y-37909500D01*
X167496153Y-37909500D01*
X167213988Y-37965626D01*
X166948194Y-38075721D01*
X166708985Y-38235555D01*
X166505555Y-38438985D01*
X166345721Y-38678194D01*
X166235626Y-38943988D01*
X166179500Y-39226153D01*
X166179500Y-39513847D01*
X166235626Y-39796012D01*
X166345721Y-40061806D01*
X166505555Y-40301015D01*
X166708985Y-40504445D01*
X166948194Y-40664279D01*
X167213988Y-40774374D01*
X167496153Y-40830500D01*
X167663660Y-40830500D01*
X171069001Y-44235842D01*
X171069000Y-65024000D01*
X168689460Y-65024000D01*
X168571015Y-64905555D01*
X168331806Y-64745721D01*
X168066012Y-64635626D01*
X167783847Y-64579500D01*
X167496153Y-64579500D01*
X167213988Y-64635626D01*
X166948194Y-64745721D01*
X166708985Y-64905555D01*
X166505555Y-65108985D01*
X166345721Y-65348194D01*
X166235626Y-65613988D01*
X166179500Y-65896153D01*
X166179500Y-66183847D01*
X166235626Y-66466012D01*
X166345721Y-66731806D01*
X166505555Y-66971015D01*
X166708985Y-67174445D01*
X166948194Y-67334279D01*
X167213988Y-67444374D01*
X167496153Y-67500500D01*
X167783847Y-67500500D01*
X168066012Y-67444374D01*
X168331806Y-67334279D01*
X168571015Y-67174445D01*
X168689460Y-67056000D01*
X171069001Y-67056000D01*
X171069000Y-90892160D01*
X170933712Y-90756872D01*
X170901896Y-90718104D01*
X170747190Y-90591140D01*
X170570687Y-90496798D01*
X170379171Y-90438702D01*
X170229902Y-90424000D01*
X170180000Y-90419085D01*
X170130098Y-90424000D01*
X168689460Y-90424000D01*
X168571015Y-90305555D01*
X168331806Y-90145721D01*
X168066012Y-90035626D01*
X167783847Y-89979500D01*
X167496153Y-89979500D01*
X167213988Y-90035626D01*
X166948194Y-90145721D01*
X166708985Y-90305555D01*
X166505555Y-90508985D01*
X166345721Y-90748194D01*
X166235626Y-91013988D01*
X166179500Y-91296153D01*
X166179500Y-91583847D01*
X166235626Y-91866012D01*
X166345721Y-92131806D01*
X166505555Y-92371015D01*
X166708985Y-92574445D01*
X166948194Y-92734279D01*
X167213988Y-92844374D01*
X167496153Y-92900500D01*
X167783847Y-92900500D01*
X168066012Y-92844374D01*
X168331806Y-92734279D01*
X168571015Y-92574445D01*
X168689460Y-92456000D01*
X169759160Y-92456000D01*
X171069001Y-93765842D01*
X171069000Y-111974159D01*
X167663660Y-115379500D01*
X167496153Y-115379500D01*
X167213988Y-115435626D01*
X166948194Y-115545721D01*
X166708985Y-115705555D01*
X166505555Y-115908985D01*
X166345721Y-116148194D01*
X166235626Y-116413988D01*
X166179500Y-116696153D01*
X166179500Y-116983847D01*
X166235626Y-117266012D01*
X166345721Y-117531806D01*
X166505555Y-117771015D01*
X166708985Y-117974445D01*
X166948194Y-118134279D01*
X167213988Y-118244374D01*
X167496153Y-118300500D01*
X167663659Y-118300500D01*
X168156292Y-118793133D01*
X168188104Y-118831896D01*
X168342810Y-118958860D01*
X168519313Y-119053202D01*
X168710829Y-119111298D01*
X168860098Y-119126000D01*
X168860105Y-119126000D01*
X168909999Y-119130914D01*
X168959893Y-119126000D01*
X170434001Y-119126000D01*
X170434000Y-135509000D01*
X163615841Y-135509000D01*
X156117750Y-128010909D01*
X166808696Y-128010909D01*
X166883367Y-128257481D01*
X167143228Y-128380931D01*
X167422180Y-128451313D01*
X167709502Y-128465921D01*
X167994154Y-128424194D01*
X168265196Y-128327737D01*
X168396633Y-128257481D01*
X168471304Y-128010909D01*
X167640000Y-127179605D01*
X166808696Y-128010909D01*
X156117750Y-128010909D01*
X155176343Y-127069502D01*
X166174079Y-127069502D01*
X166215806Y-127354154D01*
X166312263Y-127625196D01*
X166382519Y-127756633D01*
X166629091Y-127831304D01*
X167460395Y-127000000D01*
X167819605Y-127000000D01*
X168650909Y-127831304D01*
X168897481Y-127756633D01*
X169020931Y-127496772D01*
X169091313Y-127217820D01*
X169105921Y-126930498D01*
X169064194Y-126645846D01*
X168967737Y-126374804D01*
X168897481Y-126243367D01*
X168650909Y-126168696D01*
X167819605Y-127000000D01*
X167460395Y-127000000D01*
X166629091Y-126168696D01*
X166382519Y-126243367D01*
X166259069Y-126503228D01*
X166188687Y-126782180D01*
X166174079Y-127069502D01*
X155176343Y-127069502D01*
X154095932Y-125989091D01*
X166808696Y-125989091D01*
X167640000Y-126820395D01*
X168471304Y-125989091D01*
X168396633Y-125742519D01*
X168136772Y-125619069D01*
X167857820Y-125548687D01*
X167570498Y-125534079D01*
X167285846Y-125575806D01*
X167014804Y-125672263D01*
X166883367Y-125742519D01*
X166808696Y-125989091D01*
X154095932Y-125989091D01*
X141723712Y-113616872D01*
X141691896Y-113578104D01*
X141537190Y-113451140D01*
X141360687Y-113356798D01*
X141169171Y-113298702D01*
X141019902Y-113284000D01*
X140970000Y-113279085D01*
X140920098Y-113284000D01*
X140550989Y-113284000D01*
X140550989Y-81280000D01*
X140798057Y-81280000D01*
X140825764Y-81561309D01*
X140907818Y-81831808D01*
X141041068Y-82081101D01*
X141220392Y-82299608D01*
X141438899Y-82478932D01*
X141688192Y-82612182D01*
X141958691Y-82694236D01*
X142169508Y-82715000D01*
X142310492Y-82715000D01*
X142521309Y-82694236D01*
X142791808Y-82612182D01*
X143041101Y-82478932D01*
X143259608Y-82299608D01*
X143438932Y-82081101D01*
X143572182Y-81831808D01*
X143654236Y-81561309D01*
X143681943Y-81280000D01*
X143654236Y-80998691D01*
X143572182Y-80728192D01*
X143438932Y-80478899D01*
X143259608Y-80260392D01*
X143041101Y-80081068D01*
X142903318Y-80007421D01*
X143095131Y-79892385D01*
X143303519Y-79703414D01*
X143471037Y-79477420D01*
X143591246Y-79223087D01*
X143631904Y-79089039D01*
X143509915Y-78867000D01*
X142367000Y-78867000D01*
X142367000Y-78887000D01*
X142113000Y-78887000D01*
X142113000Y-78867000D01*
X140970085Y-78867000D01*
X140848096Y-79089039D01*
X140888754Y-79223087D01*
X141008963Y-79477420D01*
X141176481Y-79703414D01*
X141384869Y-79892385D01*
X141576682Y-80007421D01*
X141438899Y-80081068D01*
X141220392Y-80260392D01*
X141041068Y-80478899D01*
X140907818Y-80728192D01*
X140825764Y-80998691D01*
X140798057Y-81280000D01*
X140550989Y-81280000D01*
X140550989Y-76785851D01*
X140832692Y-76504148D01*
X140907818Y-76751808D01*
X141041068Y-77001101D01*
X141220392Y-77219608D01*
X141438899Y-77398932D01*
X141576682Y-77472579D01*
X141384869Y-77587615D01*
X141176481Y-77776586D01*
X141008963Y-78002580D01*
X140888754Y-78256913D01*
X140848096Y-78390961D01*
X140970085Y-78613000D01*
X142113000Y-78613000D01*
X142113000Y-78593000D01*
X142367000Y-78593000D01*
X142367000Y-78613000D01*
X143509915Y-78613000D01*
X143631904Y-78390961D01*
X143591246Y-78256913D01*
X143471037Y-78002580D01*
X143303519Y-77776586D01*
X143095131Y-77587615D01*
X142903318Y-77472579D01*
X143041101Y-77398932D01*
X143259608Y-77219608D01*
X143438932Y-77001101D01*
X143572182Y-76751808D01*
X143654236Y-76481309D01*
X143681943Y-76200000D01*
X143654236Y-75918691D01*
X143572182Y-75648192D01*
X143438932Y-75398899D01*
X143259608Y-75180392D01*
X143041101Y-75001068D01*
X142908142Y-74930000D01*
X143041101Y-74858932D01*
X143259608Y-74679608D01*
X143438932Y-74461101D01*
X143572182Y-74211808D01*
X143654236Y-73941309D01*
X143681943Y-73660000D01*
X143654236Y-73378691D01*
X143572182Y-73108192D01*
X143438932Y-72858899D01*
X143259608Y-72640392D01*
X143041101Y-72461068D01*
X142908142Y-72390000D01*
X143041101Y-72318932D01*
X143259608Y-72139608D01*
X143438932Y-71921101D01*
X143572182Y-71671808D01*
X143654236Y-71401309D01*
X143681943Y-71120000D01*
X143654236Y-70838691D01*
X143572182Y-70568192D01*
X143438932Y-70318899D01*
X143259608Y-70100392D01*
X143041101Y-69921068D01*
X142908142Y-69850000D01*
X143041101Y-69778932D01*
X143259608Y-69599608D01*
X143438932Y-69381101D01*
X143572182Y-69131808D01*
X143654236Y-68861309D01*
X143681943Y-68580000D01*
X143654236Y-68298691D01*
X143572182Y-68028192D01*
X143438932Y-67778899D01*
X143259608Y-67560392D01*
X143041101Y-67381068D01*
X142908142Y-67310000D01*
X143041101Y-67238932D01*
X143259608Y-67059608D01*
X143438932Y-66841101D01*
X143572182Y-66591808D01*
X143594187Y-66519266D01*
X145669000Y-68594079D01*
X145669001Y-100915088D01*
X145664085Y-100965000D01*
X145683702Y-101164170D01*
X145708479Y-101245846D01*
X145741799Y-101355687D01*
X145836141Y-101532190D01*
X145963105Y-101686896D01*
X146001868Y-101718708D01*
X166179500Y-121896341D01*
X166179500Y-122063847D01*
X166235626Y-122346012D01*
X166345721Y-122611806D01*
X166505555Y-122851015D01*
X166708985Y-123054445D01*
X166948194Y-123214279D01*
X167213988Y-123324374D01*
X167496153Y-123380500D01*
X167783847Y-123380500D01*
X168066012Y-123324374D01*
X168331806Y-123214279D01*
X168571015Y-123054445D01*
X168774445Y-122851015D01*
X168934279Y-122611806D01*
X169044374Y-122346012D01*
X169100500Y-122063847D01*
X169100500Y-121776153D01*
X169044374Y-121493988D01*
X168934279Y-121228194D01*
X168774445Y-120988985D01*
X168571015Y-120785555D01*
X168331806Y-120625721D01*
X168066012Y-120515626D01*
X167783847Y-120459500D01*
X167616341Y-120459500D01*
X149767750Y-102610909D01*
X166808696Y-102610909D01*
X166883367Y-102857481D01*
X167143228Y-102980931D01*
X167422180Y-103051313D01*
X167709502Y-103065921D01*
X167994154Y-103024194D01*
X168265196Y-102927737D01*
X168396633Y-102857481D01*
X168471304Y-102610909D01*
X167640000Y-101779605D01*
X166808696Y-102610909D01*
X149767750Y-102610909D01*
X148826343Y-101669502D01*
X166174079Y-101669502D01*
X166215806Y-101954154D01*
X166312263Y-102225196D01*
X166382519Y-102356633D01*
X166629091Y-102431304D01*
X167460395Y-101600000D01*
X167819605Y-101600000D01*
X168650909Y-102431304D01*
X168897481Y-102356633D01*
X169020931Y-102096772D01*
X169091313Y-101817820D01*
X169105921Y-101530498D01*
X169064194Y-101245846D01*
X168967737Y-100974804D01*
X168897481Y-100843367D01*
X168650909Y-100768696D01*
X167819605Y-101600000D01*
X167460395Y-101600000D01*
X166629091Y-100768696D01*
X166382519Y-100843367D01*
X166259069Y-101103228D01*
X166188687Y-101382180D01*
X166174079Y-101669502D01*
X148826343Y-101669502D01*
X147745932Y-100589091D01*
X166808696Y-100589091D01*
X167640000Y-101420395D01*
X168471304Y-100589091D01*
X168396633Y-100342519D01*
X168136772Y-100219069D01*
X167857820Y-100148687D01*
X167570498Y-100134079D01*
X167285846Y-100175806D01*
X167014804Y-100272263D01*
X166883367Y-100342519D01*
X166808696Y-100589091D01*
X147745932Y-100589091D01*
X147701000Y-100544160D01*
X147701000Y-76809822D01*
X166495384Y-95604207D01*
X166345721Y-95828194D01*
X166235626Y-96093988D01*
X166179500Y-96376153D01*
X166179500Y-96663847D01*
X166235626Y-96946012D01*
X166345721Y-97211806D01*
X166505555Y-97451015D01*
X166708985Y-97654445D01*
X166948194Y-97814279D01*
X167213988Y-97924374D01*
X167496153Y-97980500D01*
X167783847Y-97980500D01*
X168066012Y-97924374D01*
X168331806Y-97814279D01*
X168571015Y-97654445D01*
X168774445Y-97451015D01*
X168934279Y-97211806D01*
X169044374Y-96946012D01*
X169100500Y-96663847D01*
X169100500Y-96376153D01*
X169044374Y-96093988D01*
X168934279Y-95828194D01*
X168774445Y-95588985D01*
X168656000Y-95470540D01*
X168656000Y-95361884D01*
X168660915Y-95311982D01*
X168641298Y-95112811D01*
X168625126Y-95059500D01*
X168583202Y-94921295D01*
X168488860Y-94744792D01*
X168361896Y-94590086D01*
X168323133Y-94558274D01*
X150975768Y-77210909D01*
X166808696Y-77210909D01*
X166883367Y-77457481D01*
X167143228Y-77580931D01*
X167422180Y-77651313D01*
X167709502Y-77665921D01*
X167994154Y-77624194D01*
X168265196Y-77527737D01*
X168396633Y-77457481D01*
X168471304Y-77210909D01*
X167640000Y-76379605D01*
X166808696Y-77210909D01*
X150975768Y-77210909D01*
X150034361Y-76269502D01*
X166174079Y-76269502D01*
X166215806Y-76554154D01*
X166312263Y-76825196D01*
X166382519Y-76956633D01*
X166629091Y-77031304D01*
X167460395Y-76200000D01*
X167819605Y-76200000D01*
X168650909Y-77031304D01*
X168897481Y-76956633D01*
X169020931Y-76696772D01*
X169091313Y-76417820D01*
X169105921Y-76130498D01*
X169064194Y-75845846D01*
X168967737Y-75574804D01*
X168897481Y-75443367D01*
X168650909Y-75368696D01*
X167819605Y-76200000D01*
X167460395Y-76200000D01*
X166629091Y-75368696D01*
X166382519Y-75443367D01*
X166259069Y-75703228D01*
X166188687Y-75982180D01*
X166174079Y-76269502D01*
X150034361Y-76269502D01*
X148953950Y-75189091D01*
X166808696Y-75189091D01*
X167640000Y-76020395D01*
X168471304Y-75189091D01*
X168396633Y-74942519D01*
X168136772Y-74819069D01*
X167857820Y-74748687D01*
X167570498Y-74734079D01*
X167285846Y-74775806D01*
X167014804Y-74872263D01*
X166883367Y-74942519D01*
X166808696Y-75189091D01*
X148953950Y-75189091D01*
X148844010Y-75079152D01*
X148844010Y-66597911D01*
X148848925Y-66548009D01*
X148839940Y-66456780D01*
X154186292Y-71803133D01*
X154218104Y-71841896D01*
X154372810Y-71968860D01*
X154549313Y-72063202D01*
X154740829Y-72121298D01*
X154890098Y-72136000D01*
X154890105Y-72136000D01*
X154939999Y-72140914D01*
X154989893Y-72136000D01*
X166590540Y-72136000D01*
X166708985Y-72254445D01*
X166948194Y-72414279D01*
X167213988Y-72524374D01*
X167496153Y-72580500D01*
X167783847Y-72580500D01*
X168066012Y-72524374D01*
X168331806Y-72414279D01*
X168571015Y-72254445D01*
X168774445Y-72051015D01*
X168934279Y-71811806D01*
X169044374Y-71546012D01*
X169100500Y-71263847D01*
X169100500Y-70976153D01*
X169044374Y-70693988D01*
X168934279Y-70428194D01*
X168774445Y-70188985D01*
X168571015Y-69985555D01*
X168331806Y-69825721D01*
X168066012Y-69715626D01*
X167783847Y-69659500D01*
X167496153Y-69659500D01*
X167213988Y-69715626D01*
X166948194Y-69825721D01*
X166708985Y-69985555D01*
X166590540Y-70104000D01*
X155360841Y-70104000D01*
X143681485Y-58424645D01*
X143681943Y-58420000D01*
X143654236Y-58138691D01*
X143572182Y-57868192D01*
X143438932Y-57618899D01*
X143259608Y-57400392D01*
X143041101Y-57221068D01*
X142908142Y-57150000D01*
X143041101Y-57078932D01*
X143259608Y-56899608D01*
X143438932Y-56681101D01*
X143572182Y-56431808D01*
X143654236Y-56161309D01*
X143681943Y-55880000D01*
X143681485Y-55875355D01*
X149015931Y-50540909D01*
X166808696Y-50540909D01*
X166883367Y-50787481D01*
X167143228Y-50910931D01*
X167422180Y-50981313D01*
X167709502Y-50995921D01*
X167994154Y-50954194D01*
X168265196Y-50857737D01*
X168396633Y-50787481D01*
X168471304Y-50540909D01*
X167640000Y-49709605D01*
X166808696Y-50540909D01*
X149015931Y-50540909D01*
X149957338Y-49599502D01*
X166174079Y-49599502D01*
X166215806Y-49884154D01*
X166312263Y-50155196D01*
X166382519Y-50286633D01*
X166629091Y-50361304D01*
X167460395Y-49530000D01*
X167819605Y-49530000D01*
X168650909Y-50361304D01*
X168897481Y-50286633D01*
X169020931Y-50026772D01*
X169091313Y-49747820D01*
X169105921Y-49460498D01*
X169064194Y-49175846D01*
X168967737Y-48904804D01*
X168897481Y-48773367D01*
X168650909Y-48698696D01*
X167819605Y-49530000D01*
X167460395Y-49530000D01*
X166629091Y-48698696D01*
X166382519Y-48773367D01*
X166259069Y-49033228D01*
X166188687Y-49312180D01*
X166174079Y-49599502D01*
X149957338Y-49599502D01*
X151037749Y-48519091D01*
X166808696Y-48519091D01*
X167640000Y-49350395D01*
X168471304Y-48519091D01*
X168396633Y-48272519D01*
X168136772Y-48149069D01*
X167857820Y-48078687D01*
X167570498Y-48064079D01*
X167285846Y-48105806D01*
X167014804Y-48202263D01*
X166883367Y-48272519D01*
X166808696Y-48519091D01*
X151037749Y-48519091D01*
X154090841Y-45466000D01*
X166590540Y-45466000D01*
X166708985Y-45584445D01*
X166948194Y-45744279D01*
X167213988Y-45854374D01*
X167496153Y-45910500D01*
X167783847Y-45910500D01*
X168066012Y-45854374D01*
X168331806Y-45744279D01*
X168571015Y-45584445D01*
X168774445Y-45381015D01*
X168934279Y-45141806D01*
X169044374Y-44876012D01*
X169100500Y-44593847D01*
X169100500Y-44306153D01*
X169044374Y-44023988D01*
X168934279Y-43758194D01*
X168774445Y-43518985D01*
X168571015Y-43315555D01*
X168331806Y-43155721D01*
X168066012Y-43045626D01*
X167783847Y-42989500D01*
X167496153Y-42989500D01*
X167213988Y-43045626D01*
X166948194Y-43155721D01*
X166708985Y-43315555D01*
X166590540Y-43434000D01*
X153719901Y-43434000D01*
X153669999Y-43429085D01*
X153470829Y-43448702D01*
X153279313Y-43506798D01*
X153102810Y-43601140D01*
X152948104Y-43728104D01*
X152916292Y-43766867D01*
X143647308Y-53035852D01*
X143572182Y-52788192D01*
X143438932Y-52538899D01*
X143259608Y-52320392D01*
X143041101Y-52141068D01*
X142908142Y-52070000D01*
X143041101Y-51998932D01*
X143259608Y-51819608D01*
X143438932Y-51601101D01*
X143572182Y-51351808D01*
X143654236Y-51081309D01*
X143681943Y-50800000D01*
X143654236Y-50518691D01*
X143572182Y-50248192D01*
X143438932Y-49998899D01*
X143259608Y-49780392D01*
X143041101Y-49601068D01*
X142908142Y-49530000D01*
X143041101Y-49458932D01*
X143259608Y-49279608D01*
X143438932Y-49061101D01*
X143572182Y-48811808D01*
X143654236Y-48541309D01*
X143681943Y-48260000D01*
X143654236Y-47978691D01*
X143572182Y-47708192D01*
X143438932Y-47458899D01*
X143259608Y-47240392D01*
X143041101Y-47061068D01*
X142908142Y-46990000D01*
X143041101Y-46918932D01*
X143259608Y-46739608D01*
X143438932Y-46521101D01*
X143572182Y-46271808D01*
X143654236Y-46001309D01*
X143681943Y-45720000D01*
X143654236Y-45438691D01*
X143572182Y-45168192D01*
X143438932Y-44918899D01*
X143259608Y-44700392D01*
X143041101Y-44521068D01*
X142791808Y-44387818D01*
X142521309Y-44305764D01*
X142310492Y-44285000D01*
X142169508Y-44285000D01*
X141958691Y-44305764D01*
X141688192Y-44387818D01*
X141438899Y-44521068D01*
X141220392Y-44700392D01*
X141041068Y-44918899D01*
X140907818Y-45168192D01*
X140825764Y-45438691D01*
X140798057Y-45720000D01*
X140825764Y-46001309D01*
X140907818Y-46271808D01*
X141041068Y-46521101D01*
X141220392Y-46739608D01*
X141438899Y-46918932D01*
X141571858Y-46990000D01*
X141438899Y-47061068D01*
X141220392Y-47240392D01*
X141041068Y-47458899D01*
X140907818Y-47708192D01*
X140825764Y-47978691D01*
X140798057Y-48260000D01*
X140825764Y-48541309D01*
X140907818Y-48811808D01*
X141041068Y-49061101D01*
X141220392Y-49279608D01*
X141438899Y-49458932D01*
X141571858Y-49530000D01*
X141438899Y-49601068D01*
X141220392Y-49780392D01*
X141041068Y-49998899D01*
X140907818Y-50248192D01*
X140825764Y-50518691D01*
X140798057Y-50800000D01*
X140825764Y-51081309D01*
X140907818Y-51351808D01*
X141041068Y-51601101D01*
X141220392Y-51819608D01*
X141438899Y-51998932D01*
X141571858Y-52070000D01*
X141438899Y-52141068D01*
X141220392Y-52320392D01*
X141041068Y-52538899D01*
X140907818Y-52788192D01*
X140825764Y-53058691D01*
X140798057Y-53340000D01*
X140798514Y-53344645D01*
X136476868Y-57666292D01*
X136438105Y-57698104D01*
X136311141Y-57852810D01*
X136259167Y-57950048D01*
X136216799Y-58029313D01*
X136158702Y-58220830D01*
X136139085Y-58420000D01*
X136144001Y-58469912D01*
X136144000Y-110744000D01*
X111809893Y-110744000D01*
X111759999Y-110739086D01*
X111710105Y-110744000D01*
X111710098Y-110744000D01*
X111560829Y-110758702D01*
X111369313Y-110816798D01*
X111192810Y-110911140D01*
X111038104Y-111038104D01*
X111006292Y-111076867D01*
X99083660Y-122999500D01*
X98916153Y-122999500D01*
X98633988Y-123055626D01*
X98368194Y-123165721D01*
X98128985Y-123325555D01*
X97925555Y-123528985D01*
X97765721Y-123768194D01*
X97655626Y-124033988D01*
X97599500Y-124316153D01*
X97599500Y-124603847D01*
X97655626Y-124886012D01*
X97765721Y-125151806D01*
X97925555Y-125391015D01*
X98128985Y-125594445D01*
X98368194Y-125754279D01*
X98633988Y-125864374D01*
X98916153Y-125920500D01*
X99203847Y-125920500D01*
X99486012Y-125864374D01*
X99751806Y-125754279D01*
X99991015Y-125594445D01*
X100194445Y-125391015D01*
X100354279Y-125151806D01*
X100464374Y-124886012D01*
X100520500Y-124603847D01*
X100520500Y-124436340D01*
X112180841Y-112776000D01*
X137110098Y-112776000D01*
X137160000Y-112780915D01*
X137209902Y-112776000D01*
X137359171Y-112761298D01*
X137550687Y-112703202D01*
X137727190Y-112608860D01*
X137881896Y-112481896D01*
X138008860Y-112327190D01*
X138103202Y-112150687D01*
X138161298Y-111959171D01*
X138180915Y-111760000D01*
X138176000Y-111710098D01*
X138176000Y-58840840D01*
X140832692Y-56184148D01*
X140907818Y-56431808D01*
X141041068Y-56681101D01*
X141220392Y-56899608D01*
X141438899Y-57078932D01*
X141571858Y-57150000D01*
X141438899Y-57221068D01*
X141220392Y-57400392D01*
X141041068Y-57618899D01*
X140907818Y-57868192D01*
X140825764Y-58138691D01*
X140798057Y-58420000D01*
X140825764Y-58701309D01*
X140907818Y-58971808D01*
X141041068Y-59221101D01*
X141220392Y-59439608D01*
X141438899Y-59618932D01*
X141571858Y-59690000D01*
X141438899Y-59761068D01*
X141220392Y-59940392D01*
X141041068Y-60158899D01*
X140907818Y-60408192D01*
X140825764Y-60678691D01*
X140798057Y-60960000D01*
X140825764Y-61241309D01*
X140907818Y-61511808D01*
X141041068Y-61761101D01*
X141220392Y-61979608D01*
X141438899Y-62158932D01*
X141571858Y-62230000D01*
X141438899Y-62301068D01*
X141220392Y-62480392D01*
X141041068Y-62698899D01*
X140907818Y-62948192D01*
X140825764Y-63218691D01*
X140798057Y-63500000D01*
X140798515Y-63504645D01*
X140578873Y-63724287D01*
X140540105Y-63756103D01*
X140413141Y-63910809D01*
X140318799Y-64087312D01*
X140260703Y-64278828D01*
X140241086Y-64477999D01*
X140260703Y-64677170D01*
X140318799Y-64868686D01*
X140413141Y-65045189D01*
X140540105Y-65199895D01*
X140694811Y-65326859D01*
X140871314Y-65421201D01*
X140933537Y-65440076D01*
X140907818Y-65488192D01*
X140825764Y-65758691D01*
X140798057Y-66040000D01*
X140825764Y-66321309D01*
X140907818Y-66591808D01*
X141041068Y-66841101D01*
X141220392Y-67059608D01*
X141438899Y-67238932D01*
X141571858Y-67310000D01*
X141438899Y-67381068D01*
X141220392Y-67560392D01*
X141041068Y-67778899D01*
X140907818Y-68028192D01*
X140825764Y-68298691D01*
X140798057Y-68580000D01*
X140825764Y-68861309D01*
X140907818Y-69131808D01*
X141041068Y-69381101D01*
X141220392Y-69599608D01*
X141438899Y-69778932D01*
X141571858Y-69850000D01*
X141438899Y-69921068D01*
X141220392Y-70100392D01*
X141041068Y-70318899D01*
X140907818Y-70568192D01*
X140825764Y-70838691D01*
X140798057Y-71120000D01*
X140825764Y-71401309D01*
X140907818Y-71671808D01*
X141041068Y-71921101D01*
X141220392Y-72139608D01*
X141438899Y-72318932D01*
X141571858Y-72390000D01*
X141438899Y-72461068D01*
X141220392Y-72640392D01*
X141041068Y-72858899D01*
X140907818Y-73108192D01*
X140825764Y-73378691D01*
X140798057Y-73660000D01*
X140798514Y-73664645D01*
X138851861Y-75611299D01*
X138813093Y-75643115D01*
X138686129Y-75797821D01*
X138591787Y-75974325D01*
X138563619Y-76067182D01*
X138533691Y-76165841D01*
X138514074Y-76365011D01*
X138518989Y-76414913D01*
X138518990Y-113284000D01*
X114349902Y-113284000D01*
X114300000Y-113279085D01*
X114250098Y-113284000D01*
X114100829Y-113298702D01*
X113909313Y-113356798D01*
X113732810Y-113451140D01*
X113578104Y-113578104D01*
X113546287Y-113616873D01*
X113299373Y-113863787D01*
X113260604Y-113895604D01*
X113228793Y-113934366D01*
X99083660Y-128079500D01*
X98916153Y-128079500D01*
X98633988Y-128135626D01*
X98368194Y-128245721D01*
X98128985Y-128405555D01*
X97925555Y-128608985D01*
X97765721Y-128848194D01*
X97655626Y-129113988D01*
X97599500Y-129396153D01*
X97599500Y-129683847D01*
X97655626Y-129966012D01*
X97765721Y-130231806D01*
X97925555Y-130471015D01*
X98128985Y-130674445D01*
X98368194Y-130834279D01*
X98633988Y-130944374D01*
X98916153Y-131000500D01*
X99203847Y-131000500D01*
X99486012Y-130944374D01*
X99751806Y-130834279D01*
X99991015Y-130674445D01*
X100194445Y-130471015D01*
X100354279Y-130231806D01*
X100464374Y-129966012D01*
X100520500Y-129683847D01*
X100520500Y-129516340D01*
X112966500Y-117070341D01*
X112966501Y-123721658D01*
X103084160Y-133604000D01*
X100115841Y-133604000D01*
X96321212Y-129809372D01*
X96289396Y-129770604D01*
X96250627Y-129738787D01*
X95933134Y-129421294D01*
X95817189Y-129326141D01*
X95709739Y-129268708D01*
X95709739Y-120390909D01*
X98228696Y-120390909D01*
X98303367Y-120637481D01*
X98563228Y-120760931D01*
X98842180Y-120831313D01*
X99129502Y-120845921D01*
X99414154Y-120804194D01*
X99685196Y-120707737D01*
X99816633Y-120637481D01*
X99891304Y-120390909D01*
X99060000Y-119559605D01*
X98228696Y-120390909D01*
X95709739Y-120390909D01*
X95709739Y-119449502D01*
X97594079Y-119449502D01*
X97635806Y-119734154D01*
X97732263Y-120005196D01*
X97802519Y-120136633D01*
X98049091Y-120211304D01*
X98880395Y-119380000D01*
X99239605Y-119380000D01*
X100070909Y-120211304D01*
X100317481Y-120136633D01*
X100440931Y-119876772D01*
X100511313Y-119597820D01*
X100525921Y-119310498D01*
X100484194Y-119025846D01*
X100387737Y-118754804D01*
X100317481Y-118623367D01*
X100070909Y-118548696D01*
X99239605Y-119380000D01*
X98880395Y-119380000D01*
X98049091Y-118548696D01*
X97802519Y-118623367D01*
X97679069Y-118883228D01*
X97608687Y-119162180D01*
X97594079Y-119449502D01*
X95709739Y-119449502D01*
X95709739Y-118369091D01*
X98228696Y-118369091D01*
X99060000Y-119200395D01*
X99891304Y-118369091D01*
X99816633Y-118122519D01*
X99556772Y-117999069D01*
X99277820Y-117928687D01*
X98990498Y-117914079D01*
X98705846Y-117955806D01*
X98434804Y-118052263D01*
X98303367Y-118122519D01*
X98228696Y-118369091D01*
X95709739Y-118369091D01*
X95709739Y-115206292D01*
X95817189Y-115148859D01*
X95933134Y-115053706D01*
X96161184Y-114825656D01*
X102226716Y-108760125D01*
X102226721Y-108760119D01*
X113131841Y-97855000D01*
X113161486Y-97855000D01*
X113419405Y-97803696D01*
X113662359Y-97703061D01*
X113881013Y-97556962D01*
X114066962Y-97371013D01*
X114213061Y-97152359D01*
X114313696Y-96909405D01*
X114365000Y-96651486D01*
X114365000Y-96388514D01*
X114313696Y-96130595D01*
X114213061Y-95887641D01*
X114066962Y-95668987D01*
X113881013Y-95483038D01*
X113662359Y-95336939D01*
X113419405Y-95236304D01*
X113161486Y-95185000D01*
X112898514Y-95185000D01*
X112640595Y-95236304D01*
X112397641Y-95336939D01*
X112178987Y-95483038D01*
X111993038Y-95668987D01*
X111846939Y-95887641D01*
X111746304Y-96130595D01*
X111695000Y-96388514D01*
X111695000Y-96418159D01*
X100789881Y-107323279D01*
X100789875Y-107323284D01*
X95709739Y-112403421D01*
X95709739Y-97485565D01*
X98782040Y-97485565D01*
X98849020Y-97725656D01*
X99098048Y-97842756D01*
X99365135Y-97909023D01*
X99640017Y-97921910D01*
X99912133Y-97880922D01*
X100171023Y-97787636D01*
X100286980Y-97725656D01*
X100353960Y-97485565D01*
X106402040Y-97485565D01*
X106469020Y-97725656D01*
X106718048Y-97842756D01*
X106985135Y-97909023D01*
X107260017Y-97921910D01*
X107532133Y-97880922D01*
X107791023Y-97787636D01*
X107906980Y-97725656D01*
X107973960Y-97485565D01*
X107188000Y-96699605D01*
X106402040Y-97485565D01*
X100353960Y-97485565D01*
X99568000Y-96699605D01*
X98782040Y-97485565D01*
X95709739Y-97485565D01*
X95709739Y-96592017D01*
X98166090Y-96592017D01*
X98207078Y-96864133D01*
X98300364Y-97123023D01*
X98362344Y-97238980D01*
X98602435Y-97305960D01*
X99388395Y-96520000D01*
X99747605Y-96520000D01*
X100533565Y-97305960D01*
X100773656Y-97238980D01*
X100890756Y-96989952D01*
X100957023Y-96722865D01*
X100963157Y-96592017D01*
X105786090Y-96592017D01*
X105827078Y-96864133D01*
X105920364Y-97123023D01*
X105982344Y-97238980D01*
X106222435Y-97305960D01*
X107008395Y-96520000D01*
X107367605Y-96520000D01*
X108153565Y-97305960D01*
X108393656Y-97238980D01*
X108510756Y-96989952D01*
X108577023Y-96722865D01*
X108589910Y-96447983D01*
X108548922Y-96175867D01*
X108455636Y-95916977D01*
X108393656Y-95801020D01*
X108153565Y-95734040D01*
X107367605Y-96520000D01*
X107008395Y-96520000D01*
X106222435Y-95734040D01*
X105982344Y-95801020D01*
X105865244Y-96050048D01*
X105798977Y-96317135D01*
X105786090Y-96592017D01*
X100963157Y-96592017D01*
X100969910Y-96447983D01*
X100928922Y-96175867D01*
X100835636Y-95916977D01*
X100773656Y-95801020D01*
X100533565Y-95734040D01*
X99747605Y-96520000D01*
X99388395Y-96520000D01*
X98602435Y-95734040D01*
X98362344Y-95801020D01*
X98245244Y-96050048D01*
X98178977Y-96317135D01*
X98166090Y-96592017D01*
X95709739Y-96592017D01*
X95709739Y-95554435D01*
X98782040Y-95554435D01*
X99568000Y-96340395D01*
X100353960Y-95554435D01*
X106402040Y-95554435D01*
X107188000Y-96340395D01*
X107973960Y-95554435D01*
X107906980Y-95314344D01*
X107657952Y-95197244D01*
X107390865Y-95130977D01*
X107115983Y-95118090D01*
X106843867Y-95159078D01*
X106584977Y-95252364D01*
X106469020Y-95314344D01*
X106402040Y-95554435D01*
X100353960Y-95554435D01*
X100286980Y-95314344D01*
X100037952Y-95197244D01*
X99770865Y-95130977D01*
X99495983Y-95118090D01*
X99223867Y-95159078D01*
X98964977Y-95252364D01*
X98849020Y-95314344D01*
X98782040Y-95554435D01*
X95709739Y-95554435D01*
X95709739Y-88089739D01*
X108456359Y-88089739D01*
X108506261Y-88094654D01*
X108556163Y-88089739D01*
X108705432Y-88075037D01*
X108896948Y-88016941D01*
X109073451Y-87922599D01*
X109228157Y-87795635D01*
X109259973Y-87756867D01*
X113013134Y-84003707D01*
X113051897Y-83971895D01*
X113178861Y-83817189D01*
X113273203Y-83640686D01*
X113331299Y-83449170D01*
X113346001Y-83299901D01*
X113350916Y-83249999D01*
X113346001Y-83200097D01*
X113346001Y-82578297D01*
X113419405Y-82563696D01*
X113662359Y-82463061D01*
X113881013Y-82316962D01*
X114066962Y-82131013D01*
X114213061Y-81912359D01*
X114313696Y-81669405D01*
X114365000Y-81411486D01*
X114365000Y-81148514D01*
X114313696Y-80890595D01*
X114213061Y-80647641D01*
X114066962Y-80428987D01*
X113881013Y-80243038D01*
X113662359Y-80096939D01*
X113419405Y-79996304D01*
X113161486Y-79945000D01*
X112898514Y-79945000D01*
X112640595Y-79996304D01*
X112397641Y-80096939D01*
X112178987Y-80243038D01*
X111993038Y-80428987D01*
X111846939Y-80647641D01*
X111746304Y-80890595D01*
X111695000Y-81148514D01*
X111695000Y-81178160D01*
X111646873Y-81226287D01*
X111608105Y-81258103D01*
X111481141Y-81412809D01*
X111386799Y-81589313D01*
X111362114Y-81670688D01*
X111328703Y-81780829D01*
X111309086Y-81979999D01*
X111314001Y-82029901D01*
X111314002Y-82829157D01*
X108085421Y-86057739D01*
X95709739Y-86057739D01*
X95709739Y-84785565D01*
X98782040Y-84785565D01*
X98849020Y-85025656D01*
X99098048Y-85142756D01*
X99365135Y-85209023D01*
X99640017Y-85221910D01*
X99912133Y-85180922D01*
X100171023Y-85087636D01*
X100286980Y-85025656D01*
X100353960Y-84785565D01*
X106402040Y-84785565D01*
X106469020Y-85025656D01*
X106718048Y-85142756D01*
X106985135Y-85209023D01*
X107260017Y-85221910D01*
X107532133Y-85180922D01*
X107791023Y-85087636D01*
X107906980Y-85025656D01*
X107973960Y-84785565D01*
X107188000Y-83999605D01*
X106402040Y-84785565D01*
X100353960Y-84785565D01*
X99568000Y-83999605D01*
X98782040Y-84785565D01*
X95709739Y-84785565D01*
X95709739Y-83892017D01*
X98166090Y-83892017D01*
X98207078Y-84164133D01*
X98300364Y-84423023D01*
X98362344Y-84538980D01*
X98602435Y-84605960D01*
X99388395Y-83820000D01*
X99747605Y-83820000D01*
X100533565Y-84605960D01*
X100773656Y-84538980D01*
X100890756Y-84289952D01*
X100957023Y-84022865D01*
X100963157Y-83892017D01*
X105786090Y-83892017D01*
X105827078Y-84164133D01*
X105920364Y-84423023D01*
X105982344Y-84538980D01*
X106222435Y-84605960D01*
X107008395Y-83820000D01*
X107367605Y-83820000D01*
X108153565Y-84605960D01*
X108393656Y-84538980D01*
X108510756Y-84289952D01*
X108577023Y-84022865D01*
X108589910Y-83747983D01*
X108548922Y-83475867D01*
X108455636Y-83216977D01*
X108393656Y-83101020D01*
X108153565Y-83034040D01*
X107367605Y-83820000D01*
X107008395Y-83820000D01*
X106222435Y-83034040D01*
X105982344Y-83101020D01*
X105865244Y-83350048D01*
X105798977Y-83617135D01*
X105786090Y-83892017D01*
X100963157Y-83892017D01*
X100969910Y-83747983D01*
X100928922Y-83475867D01*
X100835636Y-83216977D01*
X100773656Y-83101020D01*
X100533565Y-83034040D01*
X99747605Y-83820000D01*
X99388395Y-83820000D01*
X98602435Y-83034040D01*
X98362344Y-83101020D01*
X98245244Y-83350048D01*
X98178977Y-83617135D01*
X98166090Y-83892017D01*
X95709739Y-83892017D01*
X95709739Y-82854435D01*
X98782040Y-82854435D01*
X99568000Y-83640395D01*
X100353960Y-82854435D01*
X106402040Y-82854435D01*
X107188000Y-83640395D01*
X107973960Y-82854435D01*
X107906980Y-82614344D01*
X107657952Y-82497244D01*
X107390865Y-82430977D01*
X107115983Y-82418090D01*
X106843867Y-82459078D01*
X106584977Y-82552364D01*
X106469020Y-82614344D01*
X106402040Y-82854435D01*
X100353960Y-82854435D01*
X100286980Y-82614344D01*
X100037952Y-82497244D01*
X99770865Y-82430977D01*
X99495983Y-82418090D01*
X99223867Y-82459078D01*
X98964977Y-82552364D01*
X98849020Y-82614344D01*
X98782040Y-82854435D01*
X95709739Y-82854435D01*
X95709739Y-76502261D01*
X106278199Y-76502261D01*
X106289314Y-76508202D01*
X106480830Y-76566298D01*
X106680000Y-76585915D01*
X106879170Y-76566298D01*
X106919203Y-76554154D01*
X107070687Y-76508202D01*
X107247189Y-76413859D01*
X107401896Y-76286896D01*
X107433710Y-76248130D01*
X113713133Y-69968708D01*
X113751896Y-69936896D01*
X113878860Y-69782190D01*
X113973202Y-69605687D01*
X114031298Y-69414171D01*
X114034555Y-69381101D01*
X114050915Y-69215001D01*
X114046000Y-69165099D01*
X114046000Y-68181975D01*
X114066962Y-68161013D01*
X114213061Y-67942359D01*
X114313696Y-67699405D01*
X114365000Y-67441486D01*
X114365000Y-67178514D01*
X114313696Y-66920595D01*
X114213061Y-66677641D01*
X114066962Y-66458987D01*
X113881013Y-66273038D01*
X113662359Y-66126939D01*
X113419405Y-66026304D01*
X113161486Y-65975000D01*
X112898514Y-65975000D01*
X112640595Y-66026304D01*
X112397641Y-66126939D01*
X112178987Y-66273038D01*
X111993038Y-66458987D01*
X111846939Y-66677641D01*
X111746304Y-66920595D01*
X111695000Y-67178514D01*
X111695000Y-67441486D01*
X111746304Y-67699405D01*
X111846939Y-67942359D01*
X111993038Y-68161013D01*
X112014000Y-68181975D01*
X112014001Y-68794158D01*
X106337899Y-74470261D01*
X95709739Y-74470261D01*
X95709739Y-72085565D01*
X98782040Y-72085565D01*
X98849020Y-72325656D01*
X99098048Y-72442756D01*
X99365135Y-72509023D01*
X99640017Y-72521910D01*
X99912133Y-72480922D01*
X100171023Y-72387636D01*
X100286980Y-72325656D01*
X100353960Y-72085565D01*
X106402040Y-72085565D01*
X106469020Y-72325656D01*
X106718048Y-72442756D01*
X106985135Y-72509023D01*
X107260017Y-72521910D01*
X107532133Y-72480922D01*
X107791023Y-72387636D01*
X107906980Y-72325656D01*
X107973960Y-72085565D01*
X107188000Y-71299605D01*
X106402040Y-72085565D01*
X100353960Y-72085565D01*
X99568000Y-71299605D01*
X98782040Y-72085565D01*
X95709739Y-72085565D01*
X95709739Y-71192017D01*
X98166090Y-71192017D01*
X98207078Y-71464133D01*
X98300364Y-71723023D01*
X98362344Y-71838980D01*
X98602435Y-71905960D01*
X99388395Y-71120000D01*
X99747605Y-71120000D01*
X100533565Y-71905960D01*
X100773656Y-71838980D01*
X100890756Y-71589952D01*
X100957023Y-71322865D01*
X100963157Y-71192017D01*
X105786090Y-71192017D01*
X105827078Y-71464133D01*
X105920364Y-71723023D01*
X105982344Y-71838980D01*
X106222435Y-71905960D01*
X107008395Y-71120000D01*
X107367605Y-71120000D01*
X108153565Y-71905960D01*
X108393656Y-71838980D01*
X108510756Y-71589952D01*
X108577023Y-71322865D01*
X108589910Y-71047983D01*
X108548922Y-70775867D01*
X108455636Y-70516977D01*
X108393656Y-70401020D01*
X108153565Y-70334040D01*
X107367605Y-71120000D01*
X107008395Y-71120000D01*
X106222435Y-70334040D01*
X105982344Y-70401020D01*
X105865244Y-70650048D01*
X105798977Y-70917135D01*
X105786090Y-71192017D01*
X100963157Y-71192017D01*
X100969910Y-71047983D01*
X100928922Y-70775867D01*
X100835636Y-70516977D01*
X100773656Y-70401020D01*
X100533565Y-70334040D01*
X99747605Y-71120000D01*
X99388395Y-71120000D01*
X98602435Y-70334040D01*
X98362344Y-70401020D01*
X98245244Y-70650048D01*
X98178977Y-70917135D01*
X98166090Y-71192017D01*
X95709739Y-71192017D01*
X95709739Y-70154435D01*
X98782040Y-70154435D01*
X99568000Y-70940395D01*
X100353960Y-70154435D01*
X106402040Y-70154435D01*
X107188000Y-70940395D01*
X107973960Y-70154435D01*
X107906980Y-69914344D01*
X107657952Y-69797244D01*
X107390865Y-69730977D01*
X107115983Y-69718090D01*
X106843867Y-69759078D01*
X106584977Y-69852364D01*
X106469020Y-69914344D01*
X106402040Y-70154435D01*
X100353960Y-70154435D01*
X100286980Y-69914344D01*
X100037952Y-69797244D01*
X99770865Y-69730977D01*
X99495983Y-69718090D01*
X99223867Y-69759078D01*
X98964977Y-69852364D01*
X98849020Y-69914344D01*
X98782040Y-70154435D01*
X95709739Y-70154435D01*
X95709739Y-63959739D01*
X107186359Y-63959739D01*
X107236261Y-63964654D01*
X107286163Y-63959739D01*
X107435432Y-63945037D01*
X107626948Y-63886941D01*
X107803451Y-63792599D01*
X107958157Y-63665635D01*
X107989973Y-63626867D01*
X113713133Y-57903708D01*
X113751896Y-57871896D01*
X113878860Y-57717190D01*
X113973202Y-57540687D01*
X114031298Y-57349171D01*
X114046000Y-57199902D01*
X114046000Y-57199895D01*
X114050914Y-57150001D01*
X114046000Y-57100107D01*
X114046000Y-56751975D01*
X114066962Y-56731013D01*
X114213061Y-56512359D01*
X114313696Y-56269405D01*
X114365000Y-56011486D01*
X114365000Y-55748514D01*
X114341901Y-55632391D01*
X114364973Y-55604278D01*
X114435545Y-55472248D01*
X114479001Y-55328988D01*
X114493675Y-55180002D01*
X114479001Y-55031016D01*
X114435545Y-54887755D01*
X114364973Y-54755725D01*
X114270000Y-54640000D01*
X114154275Y-54545027D01*
X114022245Y-54474455D01*
X113878984Y-54430999D01*
X113729998Y-54416325D01*
X113581012Y-54430999D01*
X113437752Y-54474455D01*
X113305722Y-54545027D01*
X113277609Y-54568099D01*
X113161486Y-54545000D01*
X112898514Y-54545000D01*
X112640595Y-54596304D01*
X112397641Y-54696939D01*
X112178987Y-54843038D01*
X111993038Y-55028987D01*
X111846939Y-55247641D01*
X111746304Y-55490595D01*
X111695000Y-55748514D01*
X111695000Y-56011486D01*
X111746304Y-56269405D01*
X111846939Y-56512359D01*
X111993038Y-56731013D01*
X112002592Y-56740567D01*
X106815421Y-61927739D01*
X95709739Y-61927739D01*
X95709739Y-59385565D01*
X99028041Y-59385565D01*
X99095021Y-59625656D01*
X99344049Y-59742756D01*
X99611136Y-59809023D01*
X99886018Y-59821910D01*
X100158134Y-59780922D01*
X100417024Y-59687636D01*
X100532981Y-59625656D01*
X100599961Y-59385565D01*
X106648041Y-59385565D01*
X106715021Y-59625656D01*
X106964049Y-59742756D01*
X107231136Y-59809023D01*
X107506018Y-59821910D01*
X107778134Y-59780922D01*
X108037024Y-59687636D01*
X108152981Y-59625656D01*
X108219961Y-59385565D01*
X107434001Y-58599605D01*
X106648041Y-59385565D01*
X100599961Y-59385565D01*
X99814001Y-58599605D01*
X99028041Y-59385565D01*
X95709739Y-59385565D01*
X95709739Y-58492017D01*
X98412091Y-58492017D01*
X98453079Y-58764133D01*
X98546365Y-59023023D01*
X98608345Y-59138980D01*
X98848436Y-59205960D01*
X99634396Y-58420000D01*
X99993606Y-58420000D01*
X100779566Y-59205960D01*
X101019657Y-59138980D01*
X101136757Y-58889952D01*
X101203024Y-58622865D01*
X101209158Y-58492017D01*
X106032091Y-58492017D01*
X106073079Y-58764133D01*
X106166365Y-59023023D01*
X106228345Y-59138980D01*
X106468436Y-59205960D01*
X107254396Y-58420000D01*
X107613606Y-58420000D01*
X108399566Y-59205960D01*
X108639657Y-59138980D01*
X108756757Y-58889952D01*
X108823024Y-58622865D01*
X108835911Y-58347983D01*
X108794923Y-58075867D01*
X108701637Y-57816977D01*
X108639657Y-57701020D01*
X108399566Y-57634040D01*
X107613606Y-58420000D01*
X107254396Y-58420000D01*
X106468436Y-57634040D01*
X106228345Y-57701020D01*
X106111245Y-57950048D01*
X106044978Y-58217135D01*
X106032091Y-58492017D01*
X101209158Y-58492017D01*
X101215911Y-58347983D01*
X101174923Y-58075867D01*
X101081637Y-57816977D01*
X101019657Y-57701020D01*
X100779566Y-57634040D01*
X99993606Y-58420000D01*
X99634396Y-58420000D01*
X98848436Y-57634040D01*
X98608345Y-57701020D01*
X98491245Y-57950048D01*
X98424978Y-58217135D01*
X98412091Y-58492017D01*
X95709739Y-58492017D01*
X95709739Y-57454435D01*
X99028041Y-57454435D01*
X99814001Y-58240395D01*
X100599961Y-57454435D01*
X106648041Y-57454435D01*
X107434001Y-58240395D01*
X108219961Y-57454435D01*
X108152981Y-57214344D01*
X107903953Y-57097244D01*
X107636866Y-57030977D01*
X107361984Y-57018090D01*
X107089868Y-57059078D01*
X106830978Y-57152364D01*
X106715021Y-57214344D01*
X106648041Y-57454435D01*
X100599961Y-57454435D01*
X100532981Y-57214344D01*
X100283953Y-57097244D01*
X100016866Y-57030977D01*
X99741984Y-57018090D01*
X99469868Y-57059078D01*
X99210978Y-57152364D01*
X99095021Y-57214344D01*
X99028041Y-57454435D01*
X95709739Y-57454435D01*
X95709739Y-56281802D01*
X95715680Y-56270687D01*
X95773776Y-56079170D01*
X95793393Y-55880000D01*
X95773776Y-55680830D01*
X95715680Y-55489314D01*
X95709739Y-55478199D01*
X95709739Y-49354739D01*
X107821359Y-49354739D01*
X107871261Y-49359654D01*
X107921163Y-49354739D01*
X108070432Y-49340037D01*
X108261948Y-49281941D01*
X108438451Y-49187599D01*
X108593157Y-49060635D01*
X108624973Y-49021867D01*
X113131841Y-44515000D01*
X113161486Y-44515000D01*
X113419405Y-44463696D01*
X113662359Y-44363061D01*
X113881013Y-44216962D01*
X114066962Y-44031013D01*
X114213061Y-43812359D01*
X114313696Y-43569405D01*
X114365000Y-43311486D01*
X114365000Y-43048514D01*
X114313696Y-42790595D01*
X114213061Y-42547641D01*
X114066962Y-42328987D01*
X113881013Y-42143038D01*
X113662359Y-41996939D01*
X113419405Y-41896304D01*
X113161486Y-41845000D01*
X112898514Y-41845000D01*
X112640595Y-41896304D01*
X112397641Y-41996939D01*
X112178987Y-42143038D01*
X111993038Y-42328987D01*
X111846939Y-42547641D01*
X111746304Y-42790595D01*
X111695000Y-43048514D01*
X111695000Y-43078159D01*
X107450421Y-47322739D01*
X94743641Y-47322739D01*
X94693739Y-47317824D01*
X94643837Y-47322739D01*
X94494568Y-47337441D01*
X94303052Y-47395537D01*
X94126549Y-47489879D01*
X93971843Y-47616843D01*
X93844879Y-47771549D01*
X93750537Y-47948052D01*
X93692441Y-48139568D01*
X93672824Y-48338739D01*
X93677740Y-48388651D01*
X93677739Y-55751359D01*
X93672824Y-55801261D01*
X93677739Y-55851162D01*
X93677740Y-55851172D01*
X93677739Y-62893837D01*
X93672824Y-62943739D01*
X93677740Y-62993651D01*
X93677739Y-68451359D01*
X93677739Y-68451360D01*
X93677740Y-75436349D01*
X93672824Y-75486261D01*
X93677739Y-75536163D01*
X93677740Y-81308828D01*
X93677739Y-81308838D01*
X93677740Y-87023827D01*
X93672824Y-87073739D01*
X93677739Y-87123641D01*
X93677740Y-130203827D01*
X93672824Y-130253739D01*
X93692441Y-130452909D01*
X93750538Y-130644426D01*
X93844880Y-130820929D01*
X93971844Y-130975635D01*
X94010607Y-131007447D01*
X94178787Y-131175627D01*
X94210604Y-131214396D01*
X94365310Y-131341360D01*
X94541813Y-131435702D01*
X94733329Y-131493798D01*
X94932499Y-131513415D01*
X94982401Y-131508500D01*
X95146660Y-131508500D01*
X98941292Y-135303133D01*
X98973104Y-135341896D01*
X99127810Y-135468860D01*
X99304313Y-135563202D01*
X99437732Y-135603674D01*
X99495828Y-135621298D01*
X99515177Y-135623204D01*
X99645098Y-135636000D01*
X99645105Y-135636000D01*
X99694999Y-135640914D01*
X99744893Y-135636000D01*
X103455098Y-135636000D01*
X103505000Y-135640915D01*
X103554902Y-135636000D01*
X103704171Y-135621298D01*
X103895687Y-135563202D01*
X104072190Y-135468860D01*
X104226896Y-135341896D01*
X104258712Y-135303128D01*
X114665633Y-124896208D01*
X114704396Y-124864396D01*
X114831360Y-124709690D01*
X114925702Y-124533187D01*
X114983798Y-124341671D01*
X114998500Y-124192402D01*
X115003415Y-124142500D01*
X114998500Y-124092598D01*
X114998500Y-115316000D01*
X139320076Y-115316000D01*
X139369978Y-115320915D01*
X139419880Y-115316000D01*
X140549160Y-115316000D01*
X162441292Y-137208133D01*
X162473104Y-137246896D01*
X162627810Y-137373860D01*
X162804313Y-137468202D01*
X162937732Y-137508674D01*
X162995828Y-137526298D01*
X163015177Y-137528204D01*
X163145098Y-137541000D01*
X163145105Y-137541000D01*
X163194999Y-137545914D01*
X163244893Y-137541000D01*
X171400098Y-137541000D01*
X171450000Y-137545915D01*
X171499902Y-137541000D01*
X171649171Y-137526298D01*
X171840687Y-137468202D01*
X172017190Y-137373860D01*
X172171896Y-137246896D01*
X172298860Y-137092190D01*
X172393202Y-136915687D01*
X172451298Y-136724171D01*
X172470915Y-136525000D01*
X172466000Y-136475098D01*
X172466000Y-118159902D01*
X172470915Y-118110000D01*
X172451298Y-117910829D01*
X172393202Y-117719313D01*
X172298860Y-117542810D01*
X172171896Y-117388104D01*
X172017190Y-117261140D01*
X171840687Y-117166798D01*
X171649171Y-117108702D01*
X171499902Y-117094000D01*
X171450000Y-117089085D01*
X171400098Y-117094000D01*
X169330841Y-117094000D01*
X169100500Y-116863659D01*
X169100500Y-116816340D01*
X172695000Y-113221841D01*
X172695000Y-138405000D01*
X91465000Y-138405000D01*
X91465000Y-45415565D01*
X98782040Y-45415565D01*
X98849020Y-45655656D01*
X99098048Y-45772756D01*
X99365135Y-45839023D01*
X99640017Y-45851910D01*
X99912133Y-45810922D01*
X100171023Y-45717636D01*
X100286980Y-45655656D01*
X100353960Y-45415565D01*
X106402040Y-45415565D01*
X106469020Y-45655656D01*
X106718048Y-45772756D01*
X106985135Y-45839023D01*
X107260017Y-45851910D01*
X107532133Y-45810922D01*
X107791023Y-45717636D01*
X107906980Y-45655656D01*
X107973960Y-45415565D01*
X107188000Y-44629605D01*
X106402040Y-45415565D01*
X100353960Y-45415565D01*
X99568000Y-44629605D01*
X98782040Y-45415565D01*
X91465000Y-45415565D01*
X91465000Y-44522017D01*
X98166090Y-44522017D01*
X98207078Y-44794133D01*
X98300364Y-45053023D01*
X98362344Y-45168980D01*
X98602435Y-45235960D01*
X99388395Y-44450000D01*
X99747605Y-44450000D01*
X100533565Y-45235960D01*
X100773656Y-45168980D01*
X100890756Y-44919952D01*
X100957023Y-44652865D01*
X100963157Y-44522017D01*
X105786090Y-44522017D01*
X105827078Y-44794133D01*
X105920364Y-45053023D01*
X105982344Y-45168980D01*
X106222435Y-45235960D01*
X107008395Y-44450000D01*
X107367605Y-44450000D01*
X108153565Y-45235960D01*
X108393656Y-45168980D01*
X108510756Y-44919952D01*
X108577023Y-44652865D01*
X108589910Y-44377983D01*
X108548922Y-44105867D01*
X108455636Y-43846977D01*
X108393656Y-43731020D01*
X108153565Y-43664040D01*
X107367605Y-44450000D01*
X107008395Y-44450000D01*
X106222435Y-43664040D01*
X105982344Y-43731020D01*
X105865244Y-43980048D01*
X105798977Y-44247135D01*
X105786090Y-44522017D01*
X100963157Y-44522017D01*
X100969910Y-44377983D01*
X100928922Y-44105867D01*
X100835636Y-43846977D01*
X100773656Y-43731020D01*
X100533565Y-43664040D01*
X99747605Y-44450000D01*
X99388395Y-44450000D01*
X98602435Y-43664040D01*
X98362344Y-43731020D01*
X98245244Y-43980048D01*
X98178977Y-44247135D01*
X98166090Y-44522017D01*
X91465000Y-44522017D01*
X91465000Y-43484435D01*
X98782040Y-43484435D01*
X99568000Y-44270395D01*
X100353960Y-43484435D01*
X106402040Y-43484435D01*
X107188000Y-44270395D01*
X107973960Y-43484435D01*
X107906980Y-43244344D01*
X107657952Y-43127244D01*
X107390865Y-43060977D01*
X107115983Y-43048090D01*
X106843867Y-43089078D01*
X106584977Y-43182364D01*
X106469020Y-43244344D01*
X106402040Y-43484435D01*
X100353960Y-43484435D01*
X100286980Y-43244344D01*
X100037952Y-43127244D01*
X99770865Y-43060977D01*
X99495983Y-43048090D01*
X99223867Y-43089078D01*
X98964977Y-43182364D01*
X98849020Y-43244344D01*
X98782040Y-43484435D01*
X91465000Y-43484435D01*
X91465000Y-39232408D01*
X98171000Y-39232408D01*
X98171000Y-39507592D01*
X98224686Y-39777490D01*
X98329995Y-40031727D01*
X98482880Y-40260535D01*
X98677465Y-40455120D01*
X98906273Y-40608005D01*
X99160510Y-40713314D01*
X99430408Y-40767000D01*
X99705592Y-40767000D01*
X99975490Y-40713314D01*
X100229727Y-40608005D01*
X100458535Y-40455120D01*
X100527655Y-40386000D01*
X106228345Y-40386000D01*
X106297465Y-40455120D01*
X106526273Y-40608005D01*
X106780510Y-40713314D01*
X107050408Y-40767000D01*
X107325592Y-40767000D01*
X107595490Y-40713314D01*
X107849727Y-40608005D01*
X108078535Y-40455120D01*
X108147655Y-40386000D01*
X111710098Y-40386000D01*
X111760000Y-40390915D01*
X111809902Y-40386000D01*
X111959171Y-40371298D01*
X112150687Y-40313202D01*
X112327190Y-40218860D01*
X112481896Y-40091896D01*
X112513712Y-40053128D01*
X113030000Y-39536840D01*
X118999000Y-45505841D01*
X118999001Y-53925088D01*
X118994085Y-53975000D01*
X119003071Y-54066230D01*
X115053712Y-50116872D01*
X115021896Y-50078104D01*
X114867190Y-49951140D01*
X114690687Y-49856798D01*
X114499171Y-49798702D01*
X114349902Y-49784000D01*
X114300000Y-49779085D01*
X114250098Y-49784000D01*
X113896373Y-49784000D01*
X113775275Y-49684618D01*
X113543354Y-49560653D01*
X113291706Y-49484317D01*
X113095579Y-49465000D01*
X112964421Y-49465000D01*
X112768294Y-49484317D01*
X112516646Y-49560653D01*
X112284725Y-49684618D01*
X112081445Y-49851445D01*
X111914618Y-50054725D01*
X111790653Y-50286646D01*
X111714317Y-50538294D01*
X111698962Y-50694198D01*
X110069160Y-52324000D01*
X108393656Y-52324000D01*
X108324536Y-52254880D01*
X108095728Y-52101995D01*
X107841491Y-51996686D01*
X107571593Y-51943000D01*
X107296409Y-51943000D01*
X107026511Y-51996686D01*
X106772274Y-52101995D01*
X106543466Y-52254880D01*
X106474346Y-52324000D01*
X100773656Y-52324000D01*
X100704536Y-52254880D01*
X100475728Y-52101995D01*
X100221491Y-51996686D01*
X99951593Y-51943000D01*
X99676409Y-51943000D01*
X99406511Y-51996686D01*
X99152274Y-52101995D01*
X98923466Y-52254880D01*
X98728881Y-52449465D01*
X98575996Y-52678273D01*
X98470687Y-52932510D01*
X98417001Y-53202408D01*
X98417001Y-53477592D01*
X98470687Y-53747490D01*
X98575996Y-54001727D01*
X98728881Y-54230535D01*
X98923466Y-54425120D01*
X99152274Y-54578005D01*
X99406511Y-54683314D01*
X99676409Y-54737000D01*
X99951593Y-54737000D01*
X100221491Y-54683314D01*
X100475728Y-54578005D01*
X100704536Y-54425120D01*
X100773656Y-54356000D01*
X106474346Y-54356000D01*
X106543466Y-54425120D01*
X106772274Y-54578005D01*
X107026511Y-54683314D01*
X107296409Y-54737000D01*
X107571593Y-54737000D01*
X107841491Y-54683314D01*
X108095728Y-54578005D01*
X108324536Y-54425120D01*
X108393656Y-54356000D01*
X110440098Y-54356000D01*
X110490000Y-54360915D01*
X110539902Y-54356000D01*
X110689171Y-54341298D01*
X110880687Y-54283202D01*
X111057190Y-54188860D01*
X111211896Y-54061896D01*
X111243712Y-54023128D01*
X113135802Y-52131038D01*
X113291706Y-52115683D01*
X113543354Y-52039347D01*
X113775275Y-51915382D01*
X113886919Y-51823759D01*
X125558514Y-63495355D01*
X125558057Y-63500000D01*
X125585764Y-63781309D01*
X125667818Y-64051808D01*
X125801068Y-64301101D01*
X125980392Y-64519608D01*
X126198899Y-64698932D01*
X126331858Y-64770000D01*
X126198899Y-64841068D01*
X125980392Y-65020392D01*
X125977431Y-65024000D01*
X122975841Y-65024000D01*
X119498712Y-61546872D01*
X119466896Y-61508104D01*
X119312190Y-61381140D01*
X119135687Y-61286798D01*
X118944171Y-61228702D01*
X118794902Y-61214000D01*
X118745000Y-61209085D01*
X118695098Y-61214000D01*
X113896373Y-61214000D01*
X113775275Y-61114618D01*
X113543354Y-60990653D01*
X113291706Y-60914317D01*
X113095579Y-60895000D01*
X112964421Y-60895000D01*
X112768294Y-60914317D01*
X112516646Y-60990653D01*
X112284725Y-61114618D01*
X112163627Y-61214000D01*
X111047902Y-61214000D01*
X110998000Y-61209085D01*
X110948098Y-61214000D01*
X110798829Y-61228702D01*
X110607313Y-61286798D01*
X110430810Y-61381140D01*
X110276104Y-61508104D01*
X110244292Y-61546867D01*
X107148160Y-64643000D01*
X107050408Y-64643000D01*
X106780510Y-64696686D01*
X106526273Y-64801995D01*
X106297465Y-64954880D01*
X106228345Y-65024000D01*
X100527655Y-65024000D01*
X100458535Y-64954880D01*
X100229727Y-64801995D01*
X99975490Y-64696686D01*
X99705592Y-64643000D01*
X99430408Y-64643000D01*
X99160510Y-64696686D01*
X98906273Y-64801995D01*
X98677465Y-64954880D01*
X98482880Y-65149465D01*
X98329995Y-65378273D01*
X98224686Y-65632510D01*
X98171000Y-65902408D01*
X98171000Y-66177592D01*
X98224686Y-66447490D01*
X98329995Y-66701727D01*
X98482880Y-66930535D01*
X98677465Y-67125120D01*
X98906273Y-67278005D01*
X99160510Y-67383314D01*
X99430408Y-67437000D01*
X99705592Y-67437000D01*
X99975490Y-67383314D01*
X100229727Y-67278005D01*
X100458535Y-67125120D01*
X100527655Y-67056000D01*
X106228345Y-67056000D01*
X106297465Y-67125120D01*
X106526273Y-67278005D01*
X106780510Y-67383314D01*
X107050408Y-67437000D01*
X107325592Y-67437000D01*
X107595490Y-67383314D01*
X107849727Y-67278005D01*
X108078535Y-67125120D01*
X108273120Y-66930535D01*
X108426005Y-66701727D01*
X108531314Y-66447490D01*
X108585000Y-66177592D01*
X108585000Y-66079840D01*
X111418841Y-63246000D01*
X112163627Y-63246000D01*
X112284725Y-63345382D01*
X112516646Y-63469347D01*
X112768294Y-63545683D01*
X112964421Y-63565000D01*
X113095579Y-63565000D01*
X113291706Y-63545683D01*
X113543354Y-63469347D01*
X113775275Y-63345382D01*
X113896373Y-63246000D01*
X118324160Y-63246000D01*
X121801292Y-66723133D01*
X121833104Y-66761896D01*
X121871865Y-66793706D01*
X121987810Y-66888860D01*
X122164313Y-66983202D01*
X122355829Y-67041298D01*
X122555000Y-67060915D01*
X122604902Y-67056000D01*
X125977431Y-67056000D01*
X125980392Y-67059608D01*
X126198899Y-67238932D01*
X126331858Y-67310000D01*
X126198899Y-67381068D01*
X125980392Y-67560392D01*
X125977431Y-67564000D01*
X120699893Y-67564000D01*
X120649999Y-67559086D01*
X120600105Y-67564000D01*
X120600098Y-67564000D01*
X120470177Y-67576796D01*
X120450828Y-67578702D01*
X120392732Y-67596326D01*
X120259313Y-67636798D01*
X120082810Y-67731140D01*
X119928104Y-67858104D01*
X119896292Y-67896867D01*
X112924198Y-74868962D01*
X112768294Y-74884317D01*
X112516646Y-74960653D01*
X112284725Y-75084618D01*
X112163627Y-75184000D01*
X109777893Y-75184000D01*
X109727999Y-75179086D01*
X109678105Y-75184000D01*
X109678098Y-75184000D01*
X109548177Y-75196796D01*
X109528828Y-75198702D01*
X109479371Y-75213705D01*
X109337313Y-75256798D01*
X109160810Y-75351140D01*
X109006104Y-75478104D01*
X108974293Y-75516866D01*
X107148160Y-77343000D01*
X107050408Y-77343000D01*
X106780510Y-77396686D01*
X106526273Y-77501995D01*
X106297465Y-77654880D01*
X106228345Y-77724000D01*
X100527655Y-77724000D01*
X100458535Y-77654880D01*
X100229727Y-77501995D01*
X99975490Y-77396686D01*
X99705592Y-77343000D01*
X99430408Y-77343000D01*
X99160510Y-77396686D01*
X98906273Y-77501995D01*
X98677465Y-77654880D01*
X98482880Y-77849465D01*
X98329995Y-78078273D01*
X98224686Y-78332510D01*
X98171000Y-78602408D01*
X98171000Y-78877592D01*
X98224686Y-79147490D01*
X98329995Y-79401727D01*
X98482880Y-79630535D01*
X98677465Y-79825120D01*
X98906273Y-79978005D01*
X99160510Y-80083314D01*
X99430408Y-80137000D01*
X99705592Y-80137000D01*
X99975490Y-80083314D01*
X100229727Y-79978005D01*
X100458535Y-79825120D01*
X100527655Y-79756000D01*
X106228345Y-79756000D01*
X106297465Y-79825120D01*
X106526273Y-79978005D01*
X106780510Y-80083314D01*
X107050408Y-80137000D01*
X107325592Y-80137000D01*
X107595490Y-80083314D01*
X107849727Y-79978005D01*
X108078535Y-79825120D01*
X108273120Y-79630535D01*
X108426005Y-79401727D01*
X108531314Y-79147490D01*
X108585000Y-78877592D01*
X108585000Y-78779840D01*
X110148841Y-77216000D01*
X112163627Y-77216000D01*
X112284725Y-77315382D01*
X112516646Y-77439347D01*
X112768294Y-77515683D01*
X112964421Y-77535000D01*
X113095579Y-77535000D01*
X113291706Y-77515683D01*
X113543354Y-77439347D01*
X113775275Y-77315382D01*
X113978555Y-77148555D01*
X114145382Y-76945275D01*
X114269347Y-76713354D01*
X114345683Y-76461706D01*
X114361038Y-76305802D01*
X121070841Y-69596000D01*
X125977431Y-69596000D01*
X125980392Y-69599608D01*
X126198899Y-69778932D01*
X126331858Y-69850000D01*
X126198899Y-69921068D01*
X125980392Y-70100392D01*
X125801068Y-70318899D01*
X125667818Y-70568192D01*
X125585764Y-70838691D01*
X125558057Y-71120000D01*
X125558515Y-71124645D01*
X125516871Y-71166289D01*
X125516866Y-71166293D01*
X124754866Y-71928293D01*
X124716104Y-71960105D01*
X124589140Y-72114811D01*
X124575886Y-72139608D01*
X124494798Y-72291314D01*
X124436701Y-72482831D01*
X124417084Y-72682001D01*
X124422000Y-72731913D01*
X124421999Y-78611160D01*
X112924198Y-90108962D01*
X112768294Y-90124317D01*
X112516646Y-90200653D01*
X112284725Y-90324618D01*
X112163627Y-90424000D01*
X108147655Y-90424000D01*
X108078535Y-90354880D01*
X107849727Y-90201995D01*
X107595490Y-90096686D01*
X107325592Y-90043000D01*
X107050408Y-90043000D01*
X106780510Y-90096686D01*
X106526273Y-90201995D01*
X106297465Y-90354880D01*
X106228345Y-90424000D01*
X100527655Y-90424000D01*
X100458535Y-90354880D01*
X100229727Y-90201995D01*
X99975490Y-90096686D01*
X99705592Y-90043000D01*
X99430408Y-90043000D01*
X99160510Y-90096686D01*
X98906273Y-90201995D01*
X98677465Y-90354880D01*
X98482880Y-90549465D01*
X98329995Y-90778273D01*
X98224686Y-91032510D01*
X98171000Y-91302408D01*
X98171000Y-91577592D01*
X98224686Y-91847490D01*
X98329995Y-92101727D01*
X98482880Y-92330535D01*
X98677465Y-92525120D01*
X98906273Y-92678005D01*
X99160510Y-92783314D01*
X99430408Y-92837000D01*
X99705592Y-92837000D01*
X99975490Y-92783314D01*
X100229727Y-92678005D01*
X100458535Y-92525120D01*
X100527655Y-92456000D01*
X106228345Y-92456000D01*
X106297465Y-92525120D01*
X106526273Y-92678005D01*
X106780510Y-92783314D01*
X107050408Y-92837000D01*
X107325592Y-92837000D01*
X107595490Y-92783314D01*
X107849727Y-92678005D01*
X108078535Y-92525120D01*
X108147655Y-92456000D01*
X112163627Y-92456000D01*
X112284725Y-92555382D01*
X112516646Y-92679347D01*
X112768294Y-92755683D01*
X112964421Y-92775000D01*
X113095579Y-92775000D01*
X113291706Y-92755683D01*
X113543354Y-92679347D01*
X113775275Y-92555382D01*
X113978555Y-92388555D01*
X114145382Y-92185275D01*
X114269347Y-91953354D01*
X114345683Y-91701706D01*
X114361038Y-91545802D01*
X125584144Y-80322697D01*
X125574188Y-80355518D01*
X125561928Y-80480000D01*
X125561928Y-82080000D01*
X125574188Y-82204482D01*
X125610498Y-82324180D01*
X125669463Y-82434494D01*
X125748815Y-82531185D01*
X125845506Y-82610537D01*
X125955820Y-82669502D01*
X126075518Y-82705812D01*
X126200000Y-82718072D01*
X127800000Y-82718072D01*
X127924482Y-82705812D01*
X128044180Y-82669502D01*
X128154494Y-82610537D01*
X128251185Y-82531185D01*
X128330537Y-82434494D01*
X128389502Y-82324180D01*
X128425812Y-82204482D01*
X128438072Y-82080000D01*
X128438072Y-80480000D01*
X128425812Y-80355518D01*
X128389502Y-80235820D01*
X128330537Y-80125506D01*
X128251185Y-80028815D01*
X128154494Y-79949463D01*
X128044180Y-79890498D01*
X127924482Y-79854188D01*
X127906518Y-79852419D01*
X128019608Y-79759608D01*
X128198932Y-79541101D01*
X128332182Y-79291808D01*
X128414236Y-79021309D01*
X128441943Y-78740000D01*
X128414236Y-78458691D01*
X128332182Y-78188192D01*
X128198932Y-77938899D01*
X128019608Y-77720392D01*
X127801101Y-77541068D01*
X127668142Y-77470000D01*
X127801101Y-77398932D01*
X128019608Y-77219608D01*
X128198932Y-77001101D01*
X128332182Y-76751808D01*
X128414236Y-76481309D01*
X128441943Y-76200000D01*
X128414236Y-75918691D01*
X128332182Y-75648192D01*
X128198932Y-75398899D01*
X128019608Y-75180392D01*
X127801101Y-75001068D01*
X127663318Y-74927421D01*
X127855131Y-74812385D01*
X128063519Y-74623414D01*
X128231037Y-74397420D01*
X128351246Y-74143087D01*
X128391904Y-74009039D01*
X128269915Y-73787000D01*
X127127000Y-73787000D01*
X127127000Y-73807000D01*
X126873000Y-73807000D01*
X126873000Y-73787000D01*
X126853000Y-73787000D01*
X126853000Y-73533000D01*
X126873000Y-73533000D01*
X126873000Y-73513000D01*
X127127000Y-73513000D01*
X127127000Y-73533000D01*
X128269915Y-73533000D01*
X128391904Y-73310961D01*
X128351246Y-73176913D01*
X128231037Y-72922580D01*
X128063519Y-72696586D01*
X127855131Y-72507615D01*
X127663318Y-72392579D01*
X127801101Y-72318932D01*
X128019608Y-72139608D01*
X128198932Y-71921101D01*
X128332182Y-71671808D01*
X128414236Y-71401309D01*
X128441943Y-71120000D01*
X128414236Y-70838691D01*
X128332182Y-70568192D01*
X128198932Y-70318899D01*
X128019608Y-70100392D01*
X127801101Y-69921068D01*
X127668142Y-69850000D01*
X127801101Y-69778932D01*
X128019608Y-69599608D01*
X128198932Y-69381101D01*
X128332182Y-69131808D01*
X128414236Y-68861309D01*
X128441943Y-68580000D01*
X128414236Y-68298691D01*
X128332182Y-68028192D01*
X128198932Y-67778899D01*
X128019608Y-67560392D01*
X127801101Y-67381068D01*
X127668142Y-67310000D01*
X127801101Y-67238932D01*
X128019608Y-67059608D01*
X128198932Y-66841101D01*
X128332182Y-66591808D01*
X128414236Y-66321309D01*
X128441943Y-66040000D01*
X128414236Y-65758691D01*
X128332182Y-65488192D01*
X128198932Y-65238899D01*
X128019608Y-65020392D01*
X127801101Y-64841068D01*
X127668142Y-64770000D01*
X127801101Y-64698932D01*
X128019608Y-64519608D01*
X128198932Y-64301101D01*
X128332182Y-64051808D01*
X128414236Y-63781309D01*
X128441943Y-63500000D01*
X128414236Y-63218691D01*
X128332182Y-62948192D01*
X128198932Y-62698899D01*
X128019608Y-62480392D01*
X127801101Y-62301068D01*
X127668142Y-62230000D01*
X127801101Y-62158932D01*
X128019608Y-61979608D01*
X128198932Y-61761101D01*
X128332182Y-61511808D01*
X128414236Y-61241309D01*
X128441943Y-60960000D01*
X128414236Y-60678691D01*
X128332182Y-60408192D01*
X128198932Y-60158899D01*
X128019608Y-59940392D01*
X127801101Y-59761068D01*
X127668142Y-59690000D01*
X127801101Y-59618932D01*
X128019608Y-59439608D01*
X128198932Y-59221101D01*
X128332182Y-58971808D01*
X128414236Y-58701309D01*
X128441943Y-58420000D01*
X128414236Y-58138691D01*
X128332182Y-57868192D01*
X128198932Y-57618899D01*
X128019608Y-57400392D01*
X127801101Y-57221068D01*
X127668142Y-57150000D01*
X127801101Y-57078932D01*
X128019608Y-56899608D01*
X128198932Y-56681101D01*
X128332182Y-56431808D01*
X128414236Y-56161309D01*
X128441943Y-55880000D01*
X128414236Y-55598691D01*
X128332182Y-55328192D01*
X128198932Y-55078899D01*
X128019608Y-54860392D01*
X127801101Y-54681068D01*
X127668142Y-54610000D01*
X127801101Y-54538932D01*
X128019608Y-54359608D01*
X128198932Y-54141101D01*
X128332182Y-53891808D01*
X128414236Y-53621309D01*
X128441943Y-53340000D01*
X128414236Y-53058691D01*
X128332182Y-52788192D01*
X128198932Y-52538899D01*
X128019608Y-52320392D01*
X127801101Y-52141068D01*
X127668142Y-52070000D01*
X127801101Y-51998932D01*
X128019608Y-51819608D01*
X128198932Y-51601101D01*
X128332182Y-51351808D01*
X128414236Y-51081309D01*
X128441943Y-50800000D01*
X128414236Y-50518691D01*
X128332182Y-50248192D01*
X128198932Y-49998899D01*
X128019608Y-49780392D01*
X127801101Y-49601068D01*
X127668142Y-49530000D01*
X127801101Y-49458932D01*
X128019608Y-49279608D01*
X128198932Y-49061101D01*
X128332182Y-48811808D01*
X128414236Y-48541309D01*
X128441943Y-48260000D01*
X128414236Y-47978691D01*
X128332182Y-47708192D01*
X128198932Y-47458899D01*
X128019608Y-47240392D01*
X127801101Y-47061068D01*
X127668142Y-46990000D01*
X127801101Y-46918932D01*
X128019608Y-46739608D01*
X128198932Y-46521101D01*
X128332182Y-46271808D01*
X128414236Y-46001309D01*
X128441943Y-45720000D01*
X128414236Y-45438691D01*
X128332182Y-45168192D01*
X128198932Y-44918899D01*
X128019608Y-44700392D01*
X127801101Y-44521068D01*
X127551808Y-44387818D01*
X127281309Y-44305764D01*
X127070492Y-44285000D01*
X126929508Y-44285000D01*
X126718691Y-44305764D01*
X126448192Y-44387818D01*
X126198899Y-44521068D01*
X125980392Y-44700392D01*
X125801068Y-44918899D01*
X125667818Y-45168192D01*
X125585764Y-45438691D01*
X125558057Y-45720000D01*
X125585764Y-46001309D01*
X125667818Y-46271808D01*
X125801068Y-46521101D01*
X125980392Y-46739608D01*
X126198899Y-46918932D01*
X126331858Y-46990000D01*
X126198899Y-47061068D01*
X125980392Y-47240392D01*
X125801068Y-47458899D01*
X125667818Y-47708192D01*
X125585764Y-47978691D01*
X125558057Y-48260000D01*
X125585764Y-48541309D01*
X125667818Y-48811808D01*
X125801068Y-49061101D01*
X125980392Y-49279608D01*
X126198899Y-49458932D01*
X126331858Y-49530000D01*
X126198899Y-49601068D01*
X125980392Y-49780392D01*
X125801068Y-49998899D01*
X125667818Y-50248192D01*
X125585764Y-50518691D01*
X125558057Y-50800000D01*
X125585764Y-51081309D01*
X125667818Y-51351808D01*
X125801068Y-51601101D01*
X125980392Y-51819608D01*
X126198899Y-51998932D01*
X126331858Y-52070000D01*
X126198899Y-52141068D01*
X125980392Y-52320392D01*
X125801068Y-52538899D01*
X125667818Y-52788192D01*
X125585764Y-53058691D01*
X125558057Y-53340000D01*
X125585764Y-53621309D01*
X125667818Y-53891808D01*
X125801068Y-54141101D01*
X125980392Y-54359608D01*
X126198899Y-54538932D01*
X126331858Y-54610000D01*
X126198899Y-54681068D01*
X125980392Y-54860392D01*
X125801068Y-55078899D01*
X125667818Y-55328192D01*
X125585764Y-55598691D01*
X125558057Y-55880000D01*
X125585764Y-56161309D01*
X125667818Y-56431808D01*
X125801068Y-56681101D01*
X125980392Y-56899608D01*
X126198899Y-57078932D01*
X126331858Y-57150000D01*
X126198899Y-57221068D01*
X125980392Y-57400392D01*
X125801068Y-57618899D01*
X125667818Y-57868192D01*
X125592692Y-58115851D01*
X121031000Y-53554160D01*
X121031000Y-45134902D01*
X121035915Y-45085000D01*
X121016298Y-44885829D01*
X120958202Y-44694313D01*
X120891064Y-44568706D01*
X120863860Y-44517810D01*
X120736896Y-44363104D01*
X120698133Y-44331292D01*
X114361038Y-37994198D01*
X114345683Y-37838294D01*
X114269347Y-37586646D01*
X114145382Y-37354725D01*
X113978555Y-37151445D01*
X113775275Y-36984618D01*
X113543354Y-36860653D01*
X113291706Y-36784317D01*
X113095579Y-36765000D01*
X112964421Y-36765000D01*
X112768294Y-36784317D01*
X112516646Y-36860653D01*
X112284725Y-36984618D01*
X112081445Y-37151445D01*
X111914618Y-37354725D01*
X111790653Y-37586646D01*
X111714317Y-37838294D01*
X111698962Y-37994198D01*
X111339160Y-38354000D01*
X108147655Y-38354000D01*
X108078535Y-38284880D01*
X107849727Y-38131995D01*
X107595490Y-38026686D01*
X107325592Y-37973000D01*
X107050408Y-37973000D01*
X106780510Y-38026686D01*
X106526273Y-38131995D01*
X106297465Y-38284880D01*
X106228345Y-38354000D01*
X100527655Y-38354000D01*
X100458535Y-38284880D01*
X100229727Y-38131995D01*
X99975490Y-38026686D01*
X99705592Y-37973000D01*
X99430408Y-37973000D01*
X99160510Y-38026686D01*
X98906273Y-38131995D01*
X98677465Y-38284880D01*
X98482880Y-38479465D01*
X98329995Y-38708273D01*
X98224686Y-38962510D01*
X98171000Y-39232408D01*
X91465000Y-39232408D01*
X91465000Y-35585000D01*
X172695001Y-35585000D01*
X172695001Y-42988160D01*
X172695001Y-42988160D01*
G37*
X172695001Y-42988160D02*
X169100500Y-39393660D01*
X169100500Y-39226153D01*
X169044374Y-38943988D01*
X168934279Y-38678194D01*
X168774445Y-38438985D01*
X168571015Y-38235555D01*
X168331806Y-38075721D01*
X168066012Y-37965626D01*
X167783847Y-37909500D01*
X167496153Y-37909500D01*
X167213988Y-37965626D01*
X166948194Y-38075721D01*
X166708985Y-38235555D01*
X166505555Y-38438985D01*
X166345721Y-38678194D01*
X166235626Y-38943988D01*
X166179500Y-39226153D01*
X166179500Y-39513847D01*
X166235626Y-39796012D01*
X166345721Y-40061806D01*
X166505555Y-40301015D01*
X166708985Y-40504445D01*
X166948194Y-40664279D01*
X167213988Y-40774374D01*
X167496153Y-40830500D01*
X167663660Y-40830500D01*
X171069001Y-44235842D01*
X171069000Y-65024000D01*
X168689460Y-65024000D01*
X168571015Y-64905555D01*
X168331806Y-64745721D01*
X168066012Y-64635626D01*
X167783847Y-64579500D01*
X167496153Y-64579500D01*
X167213988Y-64635626D01*
X166948194Y-64745721D01*
X166708985Y-64905555D01*
X166505555Y-65108985D01*
X166345721Y-65348194D01*
X166235626Y-65613988D01*
X166179500Y-65896153D01*
X166179500Y-66183847D01*
X166235626Y-66466012D01*
X166345721Y-66731806D01*
X166505555Y-66971015D01*
X166708985Y-67174445D01*
X166948194Y-67334279D01*
X167213988Y-67444374D01*
X167496153Y-67500500D01*
X167783847Y-67500500D01*
X168066012Y-67444374D01*
X168331806Y-67334279D01*
X168571015Y-67174445D01*
X168689460Y-67056000D01*
X171069001Y-67056000D01*
X171069000Y-90892160D01*
X170933712Y-90756872D01*
X170901896Y-90718104D01*
X170747190Y-90591140D01*
X170570687Y-90496798D01*
X170379171Y-90438702D01*
X170229902Y-90424000D01*
X170180000Y-90419085D01*
X170130098Y-90424000D01*
X168689460Y-90424000D01*
X168571015Y-90305555D01*
X168331806Y-90145721D01*
X168066012Y-90035626D01*
X167783847Y-89979500D01*
X167496153Y-89979500D01*
X167213988Y-90035626D01*
X166948194Y-90145721D01*
X166708985Y-90305555D01*
X166505555Y-90508985D01*
X166345721Y-90748194D01*
X166235626Y-91013988D01*
X166179500Y-91296153D01*
X166179500Y-91583847D01*
X166235626Y-91866012D01*
X166345721Y-92131806D01*
X166505555Y-92371015D01*
X166708985Y-92574445D01*
X166948194Y-92734279D01*
X167213988Y-92844374D01*
X167496153Y-92900500D01*
X167783847Y-92900500D01*
X168066012Y-92844374D01*
X168331806Y-92734279D01*
X168571015Y-92574445D01*
X168689460Y-92456000D01*
X169759160Y-92456000D01*
X171069001Y-93765842D01*
X171069000Y-111974159D01*
X167663660Y-115379500D01*
X167496153Y-115379500D01*
X167213988Y-115435626D01*
X166948194Y-115545721D01*
X166708985Y-115705555D01*
X166505555Y-115908985D01*
X166345721Y-116148194D01*
X166235626Y-116413988D01*
X166179500Y-116696153D01*
X166179500Y-116983847D01*
X166235626Y-117266012D01*
X166345721Y-117531806D01*
X166505555Y-117771015D01*
X166708985Y-117974445D01*
X166948194Y-118134279D01*
X167213988Y-118244374D01*
X167496153Y-118300500D01*
X167663659Y-118300500D01*
X168156292Y-118793133D01*
X168188104Y-118831896D01*
X168342810Y-118958860D01*
X168519313Y-119053202D01*
X168710829Y-119111298D01*
X168860098Y-119126000D01*
X168860105Y-119126000D01*
X168909999Y-119130914D01*
X168959893Y-119126000D01*
X170434001Y-119126000D01*
X170434000Y-135509000D01*
X163615841Y-135509000D01*
X156117750Y-128010909D01*
X166808696Y-128010909D01*
X166883367Y-128257481D01*
X167143228Y-128380931D01*
X167422180Y-128451313D01*
X167709502Y-128465921D01*
X167994154Y-128424194D01*
X168265196Y-128327737D01*
X168396633Y-128257481D01*
X168471304Y-128010909D01*
X167640000Y-127179605D01*
X166808696Y-128010909D01*
X156117750Y-128010909D01*
X155176343Y-127069502D01*
X166174079Y-127069502D01*
X166215806Y-127354154D01*
X166312263Y-127625196D01*
X166382519Y-127756633D01*
X166629091Y-127831304D01*
X167460395Y-127000000D01*
X167819605Y-127000000D01*
X168650909Y-127831304D01*
X168897481Y-127756633D01*
X169020931Y-127496772D01*
X169091313Y-127217820D01*
X169105921Y-126930498D01*
X169064194Y-126645846D01*
X168967737Y-126374804D01*
X168897481Y-126243367D01*
X168650909Y-126168696D01*
X167819605Y-127000000D01*
X167460395Y-127000000D01*
X166629091Y-126168696D01*
X166382519Y-126243367D01*
X166259069Y-126503228D01*
X166188687Y-126782180D01*
X166174079Y-127069502D01*
X155176343Y-127069502D01*
X154095932Y-125989091D01*
X166808696Y-125989091D01*
X167640000Y-126820395D01*
X168471304Y-125989091D01*
X168396633Y-125742519D01*
X168136772Y-125619069D01*
X167857820Y-125548687D01*
X167570498Y-125534079D01*
X167285846Y-125575806D01*
X167014804Y-125672263D01*
X166883367Y-125742519D01*
X166808696Y-125989091D01*
X154095932Y-125989091D01*
X141723712Y-113616872D01*
X141691896Y-113578104D01*
X141537190Y-113451140D01*
X141360687Y-113356798D01*
X141169171Y-113298702D01*
X141019902Y-113284000D01*
X140970000Y-113279085D01*
X140920098Y-113284000D01*
X140550989Y-113284000D01*
X140550989Y-81280000D01*
X140798057Y-81280000D01*
X140825764Y-81561309D01*
X140907818Y-81831808D01*
X141041068Y-82081101D01*
X141220392Y-82299608D01*
X141438899Y-82478932D01*
X141688192Y-82612182D01*
X141958691Y-82694236D01*
X142169508Y-82715000D01*
X142310492Y-82715000D01*
X142521309Y-82694236D01*
X142791808Y-82612182D01*
X143041101Y-82478932D01*
X143259608Y-82299608D01*
X143438932Y-82081101D01*
X143572182Y-81831808D01*
X143654236Y-81561309D01*
X143681943Y-81280000D01*
X143654236Y-80998691D01*
X143572182Y-80728192D01*
X143438932Y-80478899D01*
X143259608Y-80260392D01*
X143041101Y-80081068D01*
X142903318Y-80007421D01*
X143095131Y-79892385D01*
X143303519Y-79703414D01*
X143471037Y-79477420D01*
X143591246Y-79223087D01*
X143631904Y-79089039D01*
X143509915Y-78867000D01*
X142367000Y-78867000D01*
X142367000Y-78887000D01*
X142113000Y-78887000D01*
X142113000Y-78867000D01*
X140970085Y-78867000D01*
X140848096Y-79089039D01*
X140888754Y-79223087D01*
X141008963Y-79477420D01*
X141176481Y-79703414D01*
X141384869Y-79892385D01*
X141576682Y-80007421D01*
X141438899Y-80081068D01*
X141220392Y-80260392D01*
X141041068Y-80478899D01*
X140907818Y-80728192D01*
X140825764Y-80998691D01*
X140798057Y-81280000D01*
X140550989Y-81280000D01*
X140550989Y-76785851D01*
X140832692Y-76504148D01*
X140907818Y-76751808D01*
X141041068Y-77001101D01*
X141220392Y-77219608D01*
X141438899Y-77398932D01*
X141576682Y-77472579D01*
X141384869Y-77587615D01*
X141176481Y-77776586D01*
X141008963Y-78002580D01*
X140888754Y-78256913D01*
X140848096Y-78390961D01*
X140970085Y-78613000D01*
X142113000Y-78613000D01*
X142113000Y-78593000D01*
X142367000Y-78593000D01*
X142367000Y-78613000D01*
X143509915Y-78613000D01*
X143631904Y-78390961D01*
X143591246Y-78256913D01*
X143471037Y-78002580D01*
X143303519Y-77776586D01*
X143095131Y-77587615D01*
X142903318Y-77472579D01*
X143041101Y-77398932D01*
X143259608Y-77219608D01*
X143438932Y-77001101D01*
X143572182Y-76751808D01*
X143654236Y-76481309D01*
X143681943Y-76200000D01*
X143654236Y-75918691D01*
X143572182Y-75648192D01*
X143438932Y-75398899D01*
X143259608Y-75180392D01*
X143041101Y-75001068D01*
X142908142Y-74930000D01*
X143041101Y-74858932D01*
X143259608Y-74679608D01*
X143438932Y-74461101D01*
X143572182Y-74211808D01*
X143654236Y-73941309D01*
X143681943Y-73660000D01*
X143654236Y-73378691D01*
X143572182Y-73108192D01*
X143438932Y-72858899D01*
X143259608Y-72640392D01*
X143041101Y-72461068D01*
X142908142Y-72390000D01*
X143041101Y-72318932D01*
X143259608Y-72139608D01*
X143438932Y-71921101D01*
X143572182Y-71671808D01*
X143654236Y-71401309D01*
X143681943Y-71120000D01*
X143654236Y-70838691D01*
X143572182Y-70568192D01*
X143438932Y-70318899D01*
X143259608Y-70100392D01*
X143041101Y-69921068D01*
X142908142Y-69850000D01*
X143041101Y-69778932D01*
X143259608Y-69599608D01*
X143438932Y-69381101D01*
X143572182Y-69131808D01*
X143654236Y-68861309D01*
X143681943Y-68580000D01*
X143654236Y-68298691D01*
X143572182Y-68028192D01*
X143438932Y-67778899D01*
X143259608Y-67560392D01*
X143041101Y-67381068D01*
X142908142Y-67310000D01*
X143041101Y-67238932D01*
X143259608Y-67059608D01*
X143438932Y-66841101D01*
X143572182Y-66591808D01*
X143594187Y-66519266D01*
X145669000Y-68594079D01*
X145669001Y-100915088D01*
X145664085Y-100965000D01*
X145683702Y-101164170D01*
X145708479Y-101245846D01*
X145741799Y-101355687D01*
X145836141Y-101532190D01*
X145963105Y-101686896D01*
X146001868Y-101718708D01*
X166179500Y-121896341D01*
X166179500Y-122063847D01*
X166235626Y-122346012D01*
X166345721Y-122611806D01*
X166505555Y-122851015D01*
X166708985Y-123054445D01*
X166948194Y-123214279D01*
X167213988Y-123324374D01*
X167496153Y-123380500D01*
X167783847Y-123380500D01*
X168066012Y-123324374D01*
X168331806Y-123214279D01*
X168571015Y-123054445D01*
X168774445Y-122851015D01*
X168934279Y-122611806D01*
X169044374Y-122346012D01*
X169100500Y-122063847D01*
X169100500Y-121776153D01*
X169044374Y-121493988D01*
X168934279Y-121228194D01*
X168774445Y-120988985D01*
X168571015Y-120785555D01*
X168331806Y-120625721D01*
X168066012Y-120515626D01*
X167783847Y-120459500D01*
X167616341Y-120459500D01*
X149767750Y-102610909D01*
X166808696Y-102610909D01*
X166883367Y-102857481D01*
X167143228Y-102980931D01*
X167422180Y-103051313D01*
X167709502Y-103065921D01*
X167994154Y-103024194D01*
X168265196Y-102927737D01*
X168396633Y-102857481D01*
X168471304Y-102610909D01*
X167640000Y-101779605D01*
X166808696Y-102610909D01*
X149767750Y-102610909D01*
X148826343Y-101669502D01*
X166174079Y-101669502D01*
X166215806Y-101954154D01*
X166312263Y-102225196D01*
X166382519Y-102356633D01*
X166629091Y-102431304D01*
X167460395Y-101600000D01*
X167819605Y-101600000D01*
X168650909Y-102431304D01*
X168897481Y-102356633D01*
X169020931Y-102096772D01*
X169091313Y-101817820D01*
X169105921Y-101530498D01*
X169064194Y-101245846D01*
X168967737Y-100974804D01*
X168897481Y-100843367D01*
X168650909Y-100768696D01*
X167819605Y-101600000D01*
X167460395Y-101600000D01*
X166629091Y-100768696D01*
X166382519Y-100843367D01*
X166259069Y-101103228D01*
X166188687Y-101382180D01*
X166174079Y-101669502D01*
X148826343Y-101669502D01*
X147745932Y-100589091D01*
X166808696Y-100589091D01*
X167640000Y-101420395D01*
X168471304Y-100589091D01*
X168396633Y-100342519D01*
X168136772Y-100219069D01*
X167857820Y-100148687D01*
X167570498Y-100134079D01*
X167285846Y-100175806D01*
X167014804Y-100272263D01*
X166883367Y-100342519D01*
X166808696Y-100589091D01*
X147745932Y-100589091D01*
X147701000Y-100544160D01*
X147701000Y-76809822D01*
X166495384Y-95604207D01*
X166345721Y-95828194D01*
X166235626Y-96093988D01*
X166179500Y-96376153D01*
X166179500Y-96663847D01*
X166235626Y-96946012D01*
X166345721Y-97211806D01*
X166505555Y-97451015D01*
X166708985Y-97654445D01*
X166948194Y-97814279D01*
X167213988Y-97924374D01*
X167496153Y-97980500D01*
X167783847Y-97980500D01*
X168066012Y-97924374D01*
X168331806Y-97814279D01*
X168571015Y-97654445D01*
X168774445Y-97451015D01*
X168934279Y-97211806D01*
X169044374Y-96946012D01*
X169100500Y-96663847D01*
X169100500Y-96376153D01*
X169044374Y-96093988D01*
X168934279Y-95828194D01*
X168774445Y-95588985D01*
X168656000Y-95470540D01*
X168656000Y-95361884D01*
X168660915Y-95311982D01*
X168641298Y-95112811D01*
X168625126Y-95059500D01*
X168583202Y-94921295D01*
X168488860Y-94744792D01*
X168361896Y-94590086D01*
X168323133Y-94558274D01*
X150975768Y-77210909D01*
X166808696Y-77210909D01*
X166883367Y-77457481D01*
X167143228Y-77580931D01*
X167422180Y-77651313D01*
X167709502Y-77665921D01*
X167994154Y-77624194D01*
X168265196Y-77527737D01*
X168396633Y-77457481D01*
X168471304Y-77210909D01*
X167640000Y-76379605D01*
X166808696Y-77210909D01*
X150975768Y-77210909D01*
X150034361Y-76269502D01*
X166174079Y-76269502D01*
X166215806Y-76554154D01*
X166312263Y-76825196D01*
X166382519Y-76956633D01*
X166629091Y-77031304D01*
X167460395Y-76200000D01*
X167819605Y-76200000D01*
X168650909Y-77031304D01*
X168897481Y-76956633D01*
X169020931Y-76696772D01*
X169091313Y-76417820D01*
X169105921Y-76130498D01*
X169064194Y-75845846D01*
X168967737Y-75574804D01*
X168897481Y-75443367D01*
X168650909Y-75368696D01*
X167819605Y-76200000D01*
X167460395Y-76200000D01*
X166629091Y-75368696D01*
X166382519Y-75443367D01*
X166259069Y-75703228D01*
X166188687Y-75982180D01*
X166174079Y-76269502D01*
X150034361Y-76269502D01*
X148953950Y-75189091D01*
X166808696Y-75189091D01*
X167640000Y-76020395D01*
X168471304Y-75189091D01*
X168396633Y-74942519D01*
X168136772Y-74819069D01*
X167857820Y-74748687D01*
X167570498Y-74734079D01*
X167285846Y-74775806D01*
X167014804Y-74872263D01*
X166883367Y-74942519D01*
X166808696Y-75189091D01*
X148953950Y-75189091D01*
X148844010Y-75079152D01*
X148844010Y-66597911D01*
X148848925Y-66548009D01*
X148839940Y-66456780D01*
X154186292Y-71803133D01*
X154218104Y-71841896D01*
X154372810Y-71968860D01*
X154549313Y-72063202D01*
X154740829Y-72121298D01*
X154890098Y-72136000D01*
X154890105Y-72136000D01*
X154939999Y-72140914D01*
X154989893Y-72136000D01*
X166590540Y-72136000D01*
X166708985Y-72254445D01*
X166948194Y-72414279D01*
X167213988Y-72524374D01*
X167496153Y-72580500D01*
X167783847Y-72580500D01*
X168066012Y-72524374D01*
X168331806Y-72414279D01*
X168571015Y-72254445D01*
X168774445Y-72051015D01*
X168934279Y-71811806D01*
X169044374Y-71546012D01*
X169100500Y-71263847D01*
X169100500Y-70976153D01*
X169044374Y-70693988D01*
X168934279Y-70428194D01*
X168774445Y-70188985D01*
X168571015Y-69985555D01*
X168331806Y-69825721D01*
X168066012Y-69715626D01*
X167783847Y-69659500D01*
X167496153Y-69659500D01*
X167213988Y-69715626D01*
X166948194Y-69825721D01*
X166708985Y-69985555D01*
X166590540Y-70104000D01*
X155360841Y-70104000D01*
X143681485Y-58424645D01*
X143681943Y-58420000D01*
X143654236Y-58138691D01*
X143572182Y-57868192D01*
X143438932Y-57618899D01*
X143259608Y-57400392D01*
X143041101Y-57221068D01*
X142908142Y-57150000D01*
X143041101Y-57078932D01*
X143259608Y-56899608D01*
X143438932Y-56681101D01*
X143572182Y-56431808D01*
X143654236Y-56161309D01*
X143681943Y-55880000D01*
X143681485Y-55875355D01*
X149015931Y-50540909D01*
X166808696Y-50540909D01*
X166883367Y-50787481D01*
X167143228Y-50910931D01*
X167422180Y-50981313D01*
X167709502Y-50995921D01*
X167994154Y-50954194D01*
X168265196Y-50857737D01*
X168396633Y-50787481D01*
X168471304Y-50540909D01*
X167640000Y-49709605D01*
X166808696Y-50540909D01*
X149015931Y-50540909D01*
X149957338Y-49599502D01*
X166174079Y-49599502D01*
X166215806Y-49884154D01*
X166312263Y-50155196D01*
X166382519Y-50286633D01*
X166629091Y-50361304D01*
X167460395Y-49530000D01*
X167819605Y-49530000D01*
X168650909Y-50361304D01*
X168897481Y-50286633D01*
X169020931Y-50026772D01*
X169091313Y-49747820D01*
X169105921Y-49460498D01*
X169064194Y-49175846D01*
X168967737Y-48904804D01*
X168897481Y-48773367D01*
X168650909Y-48698696D01*
X167819605Y-49530000D01*
X167460395Y-49530000D01*
X166629091Y-48698696D01*
X166382519Y-48773367D01*
X166259069Y-49033228D01*
X166188687Y-49312180D01*
X166174079Y-49599502D01*
X149957338Y-49599502D01*
X151037749Y-48519091D01*
X166808696Y-48519091D01*
X167640000Y-49350395D01*
X168471304Y-48519091D01*
X168396633Y-48272519D01*
X168136772Y-48149069D01*
X167857820Y-48078687D01*
X167570498Y-48064079D01*
X167285846Y-48105806D01*
X167014804Y-48202263D01*
X166883367Y-48272519D01*
X166808696Y-48519091D01*
X151037749Y-48519091D01*
X154090841Y-45466000D01*
X166590540Y-45466000D01*
X166708985Y-45584445D01*
X166948194Y-45744279D01*
X167213988Y-45854374D01*
X167496153Y-45910500D01*
X167783847Y-45910500D01*
X168066012Y-45854374D01*
X168331806Y-45744279D01*
X168571015Y-45584445D01*
X168774445Y-45381015D01*
X168934279Y-45141806D01*
X169044374Y-44876012D01*
X169100500Y-44593847D01*
X169100500Y-44306153D01*
X169044374Y-44023988D01*
X168934279Y-43758194D01*
X168774445Y-43518985D01*
X168571015Y-43315555D01*
X168331806Y-43155721D01*
X168066012Y-43045626D01*
X167783847Y-42989500D01*
X167496153Y-42989500D01*
X167213988Y-43045626D01*
X166948194Y-43155721D01*
X166708985Y-43315555D01*
X166590540Y-43434000D01*
X153719901Y-43434000D01*
X153669999Y-43429085D01*
X153470829Y-43448702D01*
X153279313Y-43506798D01*
X153102810Y-43601140D01*
X152948104Y-43728104D01*
X152916292Y-43766867D01*
X143647308Y-53035852D01*
X143572182Y-52788192D01*
X143438932Y-52538899D01*
X143259608Y-52320392D01*
X143041101Y-52141068D01*
X142908142Y-52070000D01*
X143041101Y-51998932D01*
X143259608Y-51819608D01*
X143438932Y-51601101D01*
X143572182Y-51351808D01*
X143654236Y-51081309D01*
X143681943Y-50800000D01*
X143654236Y-50518691D01*
X143572182Y-50248192D01*
X143438932Y-49998899D01*
X143259608Y-49780392D01*
X143041101Y-49601068D01*
X142908142Y-49530000D01*
X143041101Y-49458932D01*
X143259608Y-49279608D01*
X143438932Y-49061101D01*
X143572182Y-48811808D01*
X143654236Y-48541309D01*
X143681943Y-48260000D01*
X143654236Y-47978691D01*
X143572182Y-47708192D01*
X143438932Y-47458899D01*
X143259608Y-47240392D01*
X143041101Y-47061068D01*
X142908142Y-46990000D01*
X143041101Y-46918932D01*
X143259608Y-46739608D01*
X143438932Y-46521101D01*
X143572182Y-46271808D01*
X143654236Y-46001309D01*
X143681943Y-45720000D01*
X143654236Y-45438691D01*
X143572182Y-45168192D01*
X143438932Y-44918899D01*
X143259608Y-44700392D01*
X143041101Y-44521068D01*
X142791808Y-44387818D01*
X142521309Y-44305764D01*
X142310492Y-44285000D01*
X142169508Y-44285000D01*
X141958691Y-44305764D01*
X141688192Y-44387818D01*
X141438899Y-44521068D01*
X141220392Y-44700392D01*
X141041068Y-44918899D01*
X140907818Y-45168192D01*
X140825764Y-45438691D01*
X140798057Y-45720000D01*
X140825764Y-46001309D01*
X140907818Y-46271808D01*
X141041068Y-46521101D01*
X141220392Y-46739608D01*
X141438899Y-46918932D01*
X141571858Y-46990000D01*
X141438899Y-47061068D01*
X141220392Y-47240392D01*
X141041068Y-47458899D01*
X140907818Y-47708192D01*
X140825764Y-47978691D01*
X140798057Y-48260000D01*
X140825764Y-48541309D01*
X140907818Y-48811808D01*
X141041068Y-49061101D01*
X141220392Y-49279608D01*
X141438899Y-49458932D01*
X141571858Y-49530000D01*
X141438899Y-49601068D01*
X141220392Y-49780392D01*
X141041068Y-49998899D01*
X140907818Y-50248192D01*
X140825764Y-50518691D01*
X140798057Y-50800000D01*
X140825764Y-51081309D01*
X140907818Y-51351808D01*
X141041068Y-51601101D01*
X141220392Y-51819608D01*
X141438899Y-51998932D01*
X141571858Y-52070000D01*
X141438899Y-52141068D01*
X141220392Y-52320392D01*
X141041068Y-52538899D01*
X140907818Y-52788192D01*
X140825764Y-53058691D01*
X140798057Y-53340000D01*
X140798514Y-53344645D01*
X136476868Y-57666292D01*
X136438105Y-57698104D01*
X136311141Y-57852810D01*
X136259167Y-57950048D01*
X136216799Y-58029313D01*
X136158702Y-58220830D01*
X136139085Y-58420000D01*
X136144001Y-58469912D01*
X136144000Y-110744000D01*
X111809893Y-110744000D01*
X111759999Y-110739086D01*
X111710105Y-110744000D01*
X111710098Y-110744000D01*
X111560829Y-110758702D01*
X111369313Y-110816798D01*
X111192810Y-110911140D01*
X111038104Y-111038104D01*
X111006292Y-111076867D01*
X99083660Y-122999500D01*
X98916153Y-122999500D01*
X98633988Y-123055626D01*
X98368194Y-123165721D01*
X98128985Y-123325555D01*
X97925555Y-123528985D01*
X97765721Y-123768194D01*
X97655626Y-124033988D01*
X97599500Y-124316153D01*
X97599500Y-124603847D01*
X97655626Y-124886012D01*
X97765721Y-125151806D01*
X97925555Y-125391015D01*
X98128985Y-125594445D01*
X98368194Y-125754279D01*
X98633988Y-125864374D01*
X98916153Y-125920500D01*
X99203847Y-125920500D01*
X99486012Y-125864374D01*
X99751806Y-125754279D01*
X99991015Y-125594445D01*
X100194445Y-125391015D01*
X100354279Y-125151806D01*
X100464374Y-124886012D01*
X100520500Y-124603847D01*
X100520500Y-124436340D01*
X112180841Y-112776000D01*
X137110098Y-112776000D01*
X137160000Y-112780915D01*
X137209902Y-112776000D01*
X137359171Y-112761298D01*
X137550687Y-112703202D01*
X137727190Y-112608860D01*
X137881896Y-112481896D01*
X138008860Y-112327190D01*
X138103202Y-112150687D01*
X138161298Y-111959171D01*
X138180915Y-111760000D01*
X138176000Y-111710098D01*
X138176000Y-58840840D01*
X140832692Y-56184148D01*
X140907818Y-56431808D01*
X141041068Y-56681101D01*
X141220392Y-56899608D01*
X141438899Y-57078932D01*
X141571858Y-57150000D01*
X141438899Y-57221068D01*
X141220392Y-57400392D01*
X141041068Y-57618899D01*
X140907818Y-57868192D01*
X140825764Y-58138691D01*
X140798057Y-58420000D01*
X140825764Y-58701309D01*
X140907818Y-58971808D01*
X141041068Y-59221101D01*
X141220392Y-59439608D01*
X141438899Y-59618932D01*
X141571858Y-59690000D01*
X141438899Y-59761068D01*
X141220392Y-59940392D01*
X141041068Y-60158899D01*
X140907818Y-60408192D01*
X140825764Y-60678691D01*
X140798057Y-60960000D01*
X140825764Y-61241309D01*
X140907818Y-61511808D01*
X141041068Y-61761101D01*
X141220392Y-61979608D01*
X141438899Y-62158932D01*
X141571858Y-62230000D01*
X141438899Y-62301068D01*
X141220392Y-62480392D01*
X141041068Y-62698899D01*
X140907818Y-62948192D01*
X140825764Y-63218691D01*
X140798057Y-63500000D01*
X140798515Y-63504645D01*
X140578873Y-63724287D01*
X140540105Y-63756103D01*
X140413141Y-63910809D01*
X140318799Y-64087312D01*
X140260703Y-64278828D01*
X140241086Y-64477999D01*
X140260703Y-64677170D01*
X140318799Y-64868686D01*
X140413141Y-65045189D01*
X140540105Y-65199895D01*
X140694811Y-65326859D01*
X140871314Y-65421201D01*
X140933537Y-65440076D01*
X140907818Y-65488192D01*
X140825764Y-65758691D01*
X140798057Y-66040000D01*
X140825764Y-66321309D01*
X140907818Y-66591808D01*
X141041068Y-66841101D01*
X141220392Y-67059608D01*
X141438899Y-67238932D01*
X141571858Y-67310000D01*
X141438899Y-67381068D01*
X141220392Y-67560392D01*
X141041068Y-67778899D01*
X140907818Y-68028192D01*
X140825764Y-68298691D01*
X140798057Y-68580000D01*
X140825764Y-68861309D01*
X140907818Y-69131808D01*
X141041068Y-69381101D01*
X141220392Y-69599608D01*
X141438899Y-69778932D01*
X141571858Y-69850000D01*
X141438899Y-69921068D01*
X141220392Y-70100392D01*
X141041068Y-70318899D01*
X140907818Y-70568192D01*
X140825764Y-70838691D01*
X140798057Y-71120000D01*
X140825764Y-71401309D01*
X140907818Y-71671808D01*
X141041068Y-71921101D01*
X141220392Y-72139608D01*
X141438899Y-72318932D01*
X141571858Y-72390000D01*
X141438899Y-72461068D01*
X141220392Y-72640392D01*
X141041068Y-72858899D01*
X140907818Y-73108192D01*
X140825764Y-73378691D01*
X140798057Y-73660000D01*
X140798514Y-73664645D01*
X138851861Y-75611299D01*
X138813093Y-75643115D01*
X138686129Y-75797821D01*
X138591787Y-75974325D01*
X138563619Y-76067182D01*
X138533691Y-76165841D01*
X138514074Y-76365011D01*
X138518989Y-76414913D01*
X138518990Y-113284000D01*
X114349902Y-113284000D01*
X114300000Y-113279085D01*
X114250098Y-113284000D01*
X114100829Y-113298702D01*
X113909313Y-113356798D01*
X113732810Y-113451140D01*
X113578104Y-113578104D01*
X113546287Y-113616873D01*
X113299373Y-113863787D01*
X113260604Y-113895604D01*
X113228793Y-113934366D01*
X99083660Y-128079500D01*
X98916153Y-128079500D01*
X98633988Y-128135626D01*
X98368194Y-128245721D01*
X98128985Y-128405555D01*
X97925555Y-128608985D01*
X97765721Y-128848194D01*
X97655626Y-129113988D01*
X97599500Y-129396153D01*
X97599500Y-129683847D01*
X97655626Y-129966012D01*
X97765721Y-130231806D01*
X97925555Y-130471015D01*
X98128985Y-130674445D01*
X98368194Y-130834279D01*
X98633988Y-130944374D01*
X98916153Y-131000500D01*
X99203847Y-131000500D01*
X99486012Y-130944374D01*
X99751806Y-130834279D01*
X99991015Y-130674445D01*
X100194445Y-130471015D01*
X100354279Y-130231806D01*
X100464374Y-129966012D01*
X100520500Y-129683847D01*
X100520500Y-129516340D01*
X112966500Y-117070341D01*
X112966501Y-123721658D01*
X103084160Y-133604000D01*
X100115841Y-133604000D01*
X96321212Y-129809372D01*
X96289396Y-129770604D01*
X96250627Y-129738787D01*
X95933134Y-129421294D01*
X95817189Y-129326141D01*
X95709739Y-129268708D01*
X95709739Y-120390909D01*
X98228696Y-120390909D01*
X98303367Y-120637481D01*
X98563228Y-120760931D01*
X98842180Y-120831313D01*
X99129502Y-120845921D01*
X99414154Y-120804194D01*
X99685196Y-120707737D01*
X99816633Y-120637481D01*
X99891304Y-120390909D01*
X99060000Y-119559605D01*
X98228696Y-120390909D01*
X95709739Y-120390909D01*
X95709739Y-119449502D01*
X97594079Y-119449502D01*
X97635806Y-119734154D01*
X97732263Y-120005196D01*
X97802519Y-120136633D01*
X98049091Y-120211304D01*
X98880395Y-119380000D01*
X99239605Y-119380000D01*
X100070909Y-120211304D01*
X100317481Y-120136633D01*
X100440931Y-119876772D01*
X100511313Y-119597820D01*
X100525921Y-119310498D01*
X100484194Y-119025846D01*
X100387737Y-118754804D01*
X100317481Y-118623367D01*
X100070909Y-118548696D01*
X99239605Y-119380000D01*
X98880395Y-119380000D01*
X98049091Y-118548696D01*
X97802519Y-118623367D01*
X97679069Y-118883228D01*
X97608687Y-119162180D01*
X97594079Y-119449502D01*
X95709739Y-119449502D01*
X95709739Y-118369091D01*
X98228696Y-118369091D01*
X99060000Y-119200395D01*
X99891304Y-118369091D01*
X99816633Y-118122519D01*
X99556772Y-117999069D01*
X99277820Y-117928687D01*
X98990498Y-117914079D01*
X98705846Y-117955806D01*
X98434804Y-118052263D01*
X98303367Y-118122519D01*
X98228696Y-118369091D01*
X95709739Y-118369091D01*
X95709739Y-115206292D01*
X95817189Y-115148859D01*
X95933134Y-115053706D01*
X96161184Y-114825656D01*
X102226716Y-108760125D01*
X102226721Y-108760119D01*
X113131841Y-97855000D01*
X113161486Y-97855000D01*
X113419405Y-97803696D01*
X113662359Y-97703061D01*
X113881013Y-97556962D01*
X114066962Y-97371013D01*
X114213061Y-97152359D01*
X114313696Y-96909405D01*
X114365000Y-96651486D01*
X114365000Y-96388514D01*
X114313696Y-96130595D01*
X114213061Y-95887641D01*
X114066962Y-95668987D01*
X113881013Y-95483038D01*
X113662359Y-95336939D01*
X113419405Y-95236304D01*
X113161486Y-95185000D01*
X112898514Y-95185000D01*
X112640595Y-95236304D01*
X112397641Y-95336939D01*
X112178987Y-95483038D01*
X111993038Y-95668987D01*
X111846939Y-95887641D01*
X111746304Y-96130595D01*
X111695000Y-96388514D01*
X111695000Y-96418159D01*
X100789881Y-107323279D01*
X100789875Y-107323284D01*
X95709739Y-112403421D01*
X95709739Y-97485565D01*
X98782040Y-97485565D01*
X98849020Y-97725656D01*
X99098048Y-97842756D01*
X99365135Y-97909023D01*
X99640017Y-97921910D01*
X99912133Y-97880922D01*
X100171023Y-97787636D01*
X100286980Y-97725656D01*
X100353960Y-97485565D01*
X106402040Y-97485565D01*
X106469020Y-97725656D01*
X106718048Y-97842756D01*
X106985135Y-97909023D01*
X107260017Y-97921910D01*
X107532133Y-97880922D01*
X107791023Y-97787636D01*
X107906980Y-97725656D01*
X107973960Y-97485565D01*
X107188000Y-96699605D01*
X106402040Y-97485565D01*
X100353960Y-97485565D01*
X99568000Y-96699605D01*
X98782040Y-97485565D01*
X95709739Y-97485565D01*
X95709739Y-96592017D01*
X98166090Y-96592017D01*
X98207078Y-96864133D01*
X98300364Y-97123023D01*
X98362344Y-97238980D01*
X98602435Y-97305960D01*
X99388395Y-96520000D01*
X99747605Y-96520000D01*
X100533565Y-97305960D01*
X100773656Y-97238980D01*
X100890756Y-96989952D01*
X100957023Y-96722865D01*
X100963157Y-96592017D01*
X105786090Y-96592017D01*
X105827078Y-96864133D01*
X105920364Y-97123023D01*
X105982344Y-97238980D01*
X106222435Y-97305960D01*
X107008395Y-96520000D01*
X107367605Y-96520000D01*
X108153565Y-97305960D01*
X108393656Y-97238980D01*
X108510756Y-96989952D01*
X108577023Y-96722865D01*
X108589910Y-96447983D01*
X108548922Y-96175867D01*
X108455636Y-95916977D01*
X108393656Y-95801020D01*
X108153565Y-95734040D01*
X107367605Y-96520000D01*
X107008395Y-96520000D01*
X106222435Y-95734040D01*
X105982344Y-95801020D01*
X105865244Y-96050048D01*
X105798977Y-96317135D01*
X105786090Y-96592017D01*
X100963157Y-96592017D01*
X100969910Y-96447983D01*
X100928922Y-96175867D01*
X100835636Y-95916977D01*
X100773656Y-95801020D01*
X100533565Y-95734040D01*
X99747605Y-96520000D01*
X99388395Y-96520000D01*
X98602435Y-95734040D01*
X98362344Y-95801020D01*
X98245244Y-96050048D01*
X98178977Y-96317135D01*
X98166090Y-96592017D01*
X95709739Y-96592017D01*
X95709739Y-95554435D01*
X98782040Y-95554435D01*
X99568000Y-96340395D01*
X100353960Y-95554435D01*
X106402040Y-95554435D01*
X107188000Y-96340395D01*
X107973960Y-95554435D01*
X107906980Y-95314344D01*
X107657952Y-95197244D01*
X107390865Y-95130977D01*
X107115983Y-95118090D01*
X106843867Y-95159078D01*
X106584977Y-95252364D01*
X106469020Y-95314344D01*
X106402040Y-95554435D01*
X100353960Y-95554435D01*
X100286980Y-95314344D01*
X100037952Y-95197244D01*
X99770865Y-95130977D01*
X99495983Y-95118090D01*
X99223867Y-95159078D01*
X98964977Y-95252364D01*
X98849020Y-95314344D01*
X98782040Y-95554435D01*
X95709739Y-95554435D01*
X95709739Y-88089739D01*
X108456359Y-88089739D01*
X108506261Y-88094654D01*
X108556163Y-88089739D01*
X108705432Y-88075037D01*
X108896948Y-88016941D01*
X109073451Y-87922599D01*
X109228157Y-87795635D01*
X109259973Y-87756867D01*
X113013134Y-84003707D01*
X113051897Y-83971895D01*
X113178861Y-83817189D01*
X113273203Y-83640686D01*
X113331299Y-83449170D01*
X113346001Y-83299901D01*
X113350916Y-83249999D01*
X113346001Y-83200097D01*
X113346001Y-82578297D01*
X113419405Y-82563696D01*
X113662359Y-82463061D01*
X113881013Y-82316962D01*
X114066962Y-82131013D01*
X114213061Y-81912359D01*
X114313696Y-81669405D01*
X114365000Y-81411486D01*
X114365000Y-81148514D01*
X114313696Y-80890595D01*
X114213061Y-80647641D01*
X114066962Y-80428987D01*
X113881013Y-80243038D01*
X113662359Y-80096939D01*
X113419405Y-79996304D01*
X113161486Y-79945000D01*
X112898514Y-79945000D01*
X112640595Y-79996304D01*
X112397641Y-80096939D01*
X112178987Y-80243038D01*
X111993038Y-80428987D01*
X111846939Y-80647641D01*
X111746304Y-80890595D01*
X111695000Y-81148514D01*
X111695000Y-81178160D01*
X111646873Y-81226287D01*
X111608105Y-81258103D01*
X111481141Y-81412809D01*
X111386799Y-81589313D01*
X111362114Y-81670688D01*
X111328703Y-81780829D01*
X111309086Y-81979999D01*
X111314001Y-82029901D01*
X111314002Y-82829157D01*
X108085421Y-86057739D01*
X95709739Y-86057739D01*
X95709739Y-84785565D01*
X98782040Y-84785565D01*
X98849020Y-85025656D01*
X99098048Y-85142756D01*
X99365135Y-85209023D01*
X99640017Y-85221910D01*
X99912133Y-85180922D01*
X100171023Y-85087636D01*
X100286980Y-85025656D01*
X100353960Y-84785565D01*
X106402040Y-84785565D01*
X106469020Y-85025656D01*
X106718048Y-85142756D01*
X106985135Y-85209023D01*
X107260017Y-85221910D01*
X107532133Y-85180922D01*
X107791023Y-85087636D01*
X107906980Y-85025656D01*
X107973960Y-84785565D01*
X107188000Y-83999605D01*
X106402040Y-84785565D01*
X100353960Y-84785565D01*
X99568000Y-83999605D01*
X98782040Y-84785565D01*
X95709739Y-84785565D01*
X95709739Y-83892017D01*
X98166090Y-83892017D01*
X98207078Y-84164133D01*
X98300364Y-84423023D01*
X98362344Y-84538980D01*
X98602435Y-84605960D01*
X99388395Y-83820000D01*
X99747605Y-83820000D01*
X100533565Y-84605960D01*
X100773656Y-84538980D01*
X100890756Y-84289952D01*
X100957023Y-84022865D01*
X100963157Y-83892017D01*
X105786090Y-83892017D01*
X105827078Y-84164133D01*
X105920364Y-84423023D01*
X105982344Y-84538980D01*
X106222435Y-84605960D01*
X107008395Y-83820000D01*
X107367605Y-83820000D01*
X108153565Y-84605960D01*
X108393656Y-84538980D01*
X108510756Y-84289952D01*
X108577023Y-84022865D01*
X108589910Y-83747983D01*
X108548922Y-83475867D01*
X108455636Y-83216977D01*
X108393656Y-83101020D01*
X108153565Y-83034040D01*
X107367605Y-83820000D01*
X107008395Y-83820000D01*
X106222435Y-83034040D01*
X105982344Y-83101020D01*
X105865244Y-83350048D01*
X105798977Y-83617135D01*
X105786090Y-83892017D01*
X100963157Y-83892017D01*
X100969910Y-83747983D01*
X100928922Y-83475867D01*
X100835636Y-83216977D01*
X100773656Y-83101020D01*
X100533565Y-83034040D01*
X99747605Y-83820000D01*
X99388395Y-83820000D01*
X98602435Y-83034040D01*
X98362344Y-83101020D01*
X98245244Y-83350048D01*
X98178977Y-83617135D01*
X98166090Y-83892017D01*
X95709739Y-83892017D01*
X95709739Y-82854435D01*
X98782040Y-82854435D01*
X99568000Y-83640395D01*
X100353960Y-82854435D01*
X106402040Y-82854435D01*
X107188000Y-83640395D01*
X107973960Y-82854435D01*
X107906980Y-82614344D01*
X107657952Y-82497244D01*
X107390865Y-82430977D01*
X107115983Y-82418090D01*
X106843867Y-82459078D01*
X106584977Y-82552364D01*
X106469020Y-82614344D01*
X106402040Y-82854435D01*
X100353960Y-82854435D01*
X100286980Y-82614344D01*
X100037952Y-82497244D01*
X99770865Y-82430977D01*
X99495983Y-82418090D01*
X99223867Y-82459078D01*
X98964977Y-82552364D01*
X98849020Y-82614344D01*
X98782040Y-82854435D01*
X95709739Y-82854435D01*
X95709739Y-76502261D01*
X106278199Y-76502261D01*
X106289314Y-76508202D01*
X106480830Y-76566298D01*
X106680000Y-76585915D01*
X106879170Y-76566298D01*
X106919203Y-76554154D01*
X107070687Y-76508202D01*
X107247189Y-76413859D01*
X107401896Y-76286896D01*
X107433710Y-76248130D01*
X113713133Y-69968708D01*
X113751896Y-69936896D01*
X113878860Y-69782190D01*
X113973202Y-69605687D01*
X114031298Y-69414171D01*
X114034555Y-69381101D01*
X114050915Y-69215001D01*
X114046000Y-69165099D01*
X114046000Y-68181975D01*
X114066962Y-68161013D01*
X114213061Y-67942359D01*
X114313696Y-67699405D01*
X114365000Y-67441486D01*
X114365000Y-67178514D01*
X114313696Y-66920595D01*
X114213061Y-66677641D01*
X114066962Y-66458987D01*
X113881013Y-66273038D01*
X113662359Y-66126939D01*
X113419405Y-66026304D01*
X113161486Y-65975000D01*
X112898514Y-65975000D01*
X112640595Y-66026304D01*
X112397641Y-66126939D01*
X112178987Y-66273038D01*
X111993038Y-66458987D01*
X111846939Y-66677641D01*
X111746304Y-66920595D01*
X111695000Y-67178514D01*
X111695000Y-67441486D01*
X111746304Y-67699405D01*
X111846939Y-67942359D01*
X111993038Y-68161013D01*
X112014000Y-68181975D01*
X112014001Y-68794158D01*
X106337899Y-74470261D01*
X95709739Y-74470261D01*
X95709739Y-72085565D01*
X98782040Y-72085565D01*
X98849020Y-72325656D01*
X99098048Y-72442756D01*
X99365135Y-72509023D01*
X99640017Y-72521910D01*
X99912133Y-72480922D01*
X100171023Y-72387636D01*
X100286980Y-72325656D01*
X100353960Y-72085565D01*
X106402040Y-72085565D01*
X106469020Y-72325656D01*
X106718048Y-72442756D01*
X106985135Y-72509023D01*
X107260017Y-72521910D01*
X107532133Y-72480922D01*
X107791023Y-72387636D01*
X107906980Y-72325656D01*
X107973960Y-72085565D01*
X107188000Y-71299605D01*
X106402040Y-72085565D01*
X100353960Y-72085565D01*
X99568000Y-71299605D01*
X98782040Y-72085565D01*
X95709739Y-72085565D01*
X95709739Y-71192017D01*
X98166090Y-71192017D01*
X98207078Y-71464133D01*
X98300364Y-71723023D01*
X98362344Y-71838980D01*
X98602435Y-71905960D01*
X99388395Y-71120000D01*
X99747605Y-71120000D01*
X100533565Y-71905960D01*
X100773656Y-71838980D01*
X100890756Y-71589952D01*
X100957023Y-71322865D01*
X100963157Y-71192017D01*
X105786090Y-71192017D01*
X105827078Y-71464133D01*
X105920364Y-71723023D01*
X105982344Y-71838980D01*
X106222435Y-71905960D01*
X107008395Y-71120000D01*
X107367605Y-71120000D01*
X108153565Y-71905960D01*
X108393656Y-71838980D01*
X108510756Y-71589952D01*
X108577023Y-71322865D01*
X108589910Y-71047983D01*
X108548922Y-70775867D01*
X108455636Y-70516977D01*
X108393656Y-70401020D01*
X108153565Y-70334040D01*
X107367605Y-71120000D01*
X107008395Y-71120000D01*
X106222435Y-70334040D01*
X105982344Y-70401020D01*
X105865244Y-70650048D01*
X105798977Y-70917135D01*
X105786090Y-71192017D01*
X100963157Y-71192017D01*
X100969910Y-71047983D01*
X100928922Y-70775867D01*
X100835636Y-70516977D01*
X100773656Y-70401020D01*
X100533565Y-70334040D01*
X99747605Y-71120000D01*
X99388395Y-71120000D01*
X98602435Y-70334040D01*
X98362344Y-70401020D01*
X98245244Y-70650048D01*
X98178977Y-70917135D01*
X98166090Y-71192017D01*
X95709739Y-71192017D01*
X95709739Y-70154435D01*
X98782040Y-70154435D01*
X99568000Y-70940395D01*
X100353960Y-70154435D01*
X106402040Y-70154435D01*
X107188000Y-70940395D01*
X107973960Y-70154435D01*
X107906980Y-69914344D01*
X107657952Y-69797244D01*
X107390865Y-69730977D01*
X107115983Y-69718090D01*
X106843867Y-69759078D01*
X106584977Y-69852364D01*
X106469020Y-69914344D01*
X106402040Y-70154435D01*
X100353960Y-70154435D01*
X100286980Y-69914344D01*
X100037952Y-69797244D01*
X99770865Y-69730977D01*
X99495983Y-69718090D01*
X99223867Y-69759078D01*
X98964977Y-69852364D01*
X98849020Y-69914344D01*
X98782040Y-70154435D01*
X95709739Y-70154435D01*
X95709739Y-63959739D01*
X107186359Y-63959739D01*
X107236261Y-63964654D01*
X107286163Y-63959739D01*
X107435432Y-63945037D01*
X107626948Y-63886941D01*
X107803451Y-63792599D01*
X107958157Y-63665635D01*
X107989973Y-63626867D01*
X113713133Y-57903708D01*
X113751896Y-57871896D01*
X113878860Y-57717190D01*
X113973202Y-57540687D01*
X114031298Y-57349171D01*
X114046000Y-57199902D01*
X114046000Y-57199895D01*
X114050914Y-57150001D01*
X114046000Y-57100107D01*
X114046000Y-56751975D01*
X114066962Y-56731013D01*
X114213061Y-56512359D01*
X114313696Y-56269405D01*
X114365000Y-56011486D01*
X114365000Y-55748514D01*
X114341901Y-55632391D01*
X114364973Y-55604278D01*
X114435545Y-55472248D01*
X114479001Y-55328988D01*
X114493675Y-55180002D01*
X114479001Y-55031016D01*
X114435545Y-54887755D01*
X114364973Y-54755725D01*
X114270000Y-54640000D01*
X114154275Y-54545027D01*
X114022245Y-54474455D01*
X113878984Y-54430999D01*
X113729998Y-54416325D01*
X113581012Y-54430999D01*
X113437752Y-54474455D01*
X113305722Y-54545027D01*
X113277609Y-54568099D01*
X113161486Y-54545000D01*
X112898514Y-54545000D01*
X112640595Y-54596304D01*
X112397641Y-54696939D01*
X112178987Y-54843038D01*
X111993038Y-55028987D01*
X111846939Y-55247641D01*
X111746304Y-55490595D01*
X111695000Y-55748514D01*
X111695000Y-56011486D01*
X111746304Y-56269405D01*
X111846939Y-56512359D01*
X111993038Y-56731013D01*
X112002592Y-56740567D01*
X106815421Y-61927739D01*
X95709739Y-61927739D01*
X95709739Y-59385565D01*
X99028041Y-59385565D01*
X99095021Y-59625656D01*
X99344049Y-59742756D01*
X99611136Y-59809023D01*
X99886018Y-59821910D01*
X100158134Y-59780922D01*
X100417024Y-59687636D01*
X100532981Y-59625656D01*
X100599961Y-59385565D01*
X106648041Y-59385565D01*
X106715021Y-59625656D01*
X106964049Y-59742756D01*
X107231136Y-59809023D01*
X107506018Y-59821910D01*
X107778134Y-59780922D01*
X108037024Y-59687636D01*
X108152981Y-59625656D01*
X108219961Y-59385565D01*
X107434001Y-58599605D01*
X106648041Y-59385565D01*
X100599961Y-59385565D01*
X99814001Y-58599605D01*
X99028041Y-59385565D01*
X95709739Y-59385565D01*
X95709739Y-58492017D01*
X98412091Y-58492017D01*
X98453079Y-58764133D01*
X98546365Y-59023023D01*
X98608345Y-59138980D01*
X98848436Y-59205960D01*
X99634396Y-58420000D01*
X99993606Y-58420000D01*
X100779566Y-59205960D01*
X101019657Y-59138980D01*
X101136757Y-58889952D01*
X101203024Y-58622865D01*
X101209158Y-58492017D01*
X106032091Y-58492017D01*
X106073079Y-58764133D01*
X106166365Y-59023023D01*
X106228345Y-59138980D01*
X106468436Y-59205960D01*
X107254396Y-58420000D01*
X107613606Y-58420000D01*
X108399566Y-59205960D01*
X108639657Y-59138980D01*
X108756757Y-58889952D01*
X108823024Y-58622865D01*
X108835911Y-58347983D01*
X108794923Y-58075867D01*
X108701637Y-57816977D01*
X108639657Y-57701020D01*
X108399566Y-57634040D01*
X107613606Y-58420000D01*
X107254396Y-58420000D01*
X106468436Y-57634040D01*
X106228345Y-57701020D01*
X106111245Y-57950048D01*
X106044978Y-58217135D01*
X106032091Y-58492017D01*
X101209158Y-58492017D01*
X101215911Y-58347983D01*
X101174923Y-58075867D01*
X101081637Y-57816977D01*
X101019657Y-57701020D01*
X100779566Y-57634040D01*
X99993606Y-58420000D01*
X99634396Y-58420000D01*
X98848436Y-57634040D01*
X98608345Y-57701020D01*
X98491245Y-57950048D01*
X98424978Y-58217135D01*
X98412091Y-58492017D01*
X95709739Y-58492017D01*
X95709739Y-57454435D01*
X99028041Y-57454435D01*
X99814001Y-58240395D01*
X100599961Y-57454435D01*
X106648041Y-57454435D01*
X107434001Y-58240395D01*
X108219961Y-57454435D01*
X108152981Y-57214344D01*
X107903953Y-57097244D01*
X107636866Y-57030977D01*
X107361984Y-57018090D01*
X107089868Y-57059078D01*
X106830978Y-57152364D01*
X106715021Y-57214344D01*
X106648041Y-57454435D01*
X100599961Y-57454435D01*
X100532981Y-57214344D01*
X100283953Y-57097244D01*
X100016866Y-57030977D01*
X99741984Y-57018090D01*
X99469868Y-57059078D01*
X99210978Y-57152364D01*
X99095021Y-57214344D01*
X99028041Y-57454435D01*
X95709739Y-57454435D01*
X95709739Y-56281802D01*
X95715680Y-56270687D01*
X95773776Y-56079170D01*
X95793393Y-55880000D01*
X95773776Y-55680830D01*
X95715680Y-55489314D01*
X95709739Y-55478199D01*
X95709739Y-49354739D01*
X107821359Y-49354739D01*
X107871261Y-49359654D01*
X107921163Y-49354739D01*
X108070432Y-49340037D01*
X108261948Y-49281941D01*
X108438451Y-49187599D01*
X108593157Y-49060635D01*
X108624973Y-49021867D01*
X113131841Y-44515000D01*
X113161486Y-44515000D01*
X113419405Y-44463696D01*
X113662359Y-44363061D01*
X113881013Y-44216962D01*
X114066962Y-44031013D01*
X114213061Y-43812359D01*
X114313696Y-43569405D01*
X114365000Y-43311486D01*
X114365000Y-43048514D01*
X114313696Y-42790595D01*
X114213061Y-42547641D01*
X114066962Y-42328987D01*
X113881013Y-42143038D01*
X113662359Y-41996939D01*
X113419405Y-41896304D01*
X113161486Y-41845000D01*
X112898514Y-41845000D01*
X112640595Y-41896304D01*
X112397641Y-41996939D01*
X112178987Y-42143038D01*
X111993038Y-42328987D01*
X111846939Y-42547641D01*
X111746304Y-42790595D01*
X111695000Y-43048514D01*
X111695000Y-43078159D01*
X107450421Y-47322739D01*
X94743641Y-47322739D01*
X94693739Y-47317824D01*
X94643837Y-47322739D01*
X94494568Y-47337441D01*
X94303052Y-47395537D01*
X94126549Y-47489879D01*
X93971843Y-47616843D01*
X93844879Y-47771549D01*
X93750537Y-47948052D01*
X93692441Y-48139568D01*
X93672824Y-48338739D01*
X93677740Y-48388651D01*
X93677739Y-55751359D01*
X93672824Y-55801261D01*
X93677739Y-55851162D01*
X93677740Y-55851172D01*
X93677739Y-62893837D01*
X93672824Y-62943739D01*
X93677740Y-62993651D01*
X93677739Y-68451359D01*
X93677739Y-68451360D01*
X93677740Y-75436349D01*
X93672824Y-75486261D01*
X93677739Y-75536163D01*
X93677740Y-81308828D01*
X93677739Y-81308838D01*
X93677740Y-87023827D01*
X93672824Y-87073739D01*
X93677739Y-87123641D01*
X93677740Y-130203827D01*
X93672824Y-130253739D01*
X93692441Y-130452909D01*
X93750538Y-130644426D01*
X93844880Y-130820929D01*
X93971844Y-130975635D01*
X94010607Y-131007447D01*
X94178787Y-131175627D01*
X94210604Y-131214396D01*
X94365310Y-131341360D01*
X94541813Y-131435702D01*
X94733329Y-131493798D01*
X94932499Y-131513415D01*
X94982401Y-131508500D01*
X95146660Y-131508500D01*
X98941292Y-135303133D01*
X98973104Y-135341896D01*
X99127810Y-135468860D01*
X99304313Y-135563202D01*
X99437732Y-135603674D01*
X99495828Y-135621298D01*
X99515177Y-135623204D01*
X99645098Y-135636000D01*
X99645105Y-135636000D01*
X99694999Y-135640914D01*
X99744893Y-135636000D01*
X103455098Y-135636000D01*
X103505000Y-135640915D01*
X103554902Y-135636000D01*
X103704171Y-135621298D01*
X103895687Y-135563202D01*
X104072190Y-135468860D01*
X104226896Y-135341896D01*
X104258712Y-135303128D01*
X114665633Y-124896208D01*
X114704396Y-124864396D01*
X114831360Y-124709690D01*
X114925702Y-124533187D01*
X114983798Y-124341671D01*
X114998500Y-124192402D01*
X115003415Y-124142500D01*
X114998500Y-124092598D01*
X114998500Y-115316000D01*
X139320076Y-115316000D01*
X139369978Y-115320915D01*
X139419880Y-115316000D01*
X140549160Y-115316000D01*
X162441292Y-137208133D01*
X162473104Y-137246896D01*
X162627810Y-137373860D01*
X162804313Y-137468202D01*
X162937732Y-137508674D01*
X162995828Y-137526298D01*
X163015177Y-137528204D01*
X163145098Y-137541000D01*
X163145105Y-137541000D01*
X163194999Y-137545914D01*
X163244893Y-137541000D01*
X171400098Y-137541000D01*
X171450000Y-137545915D01*
X171499902Y-137541000D01*
X171649171Y-137526298D01*
X171840687Y-137468202D01*
X172017190Y-137373860D01*
X172171896Y-137246896D01*
X172298860Y-137092190D01*
X172393202Y-136915687D01*
X172451298Y-136724171D01*
X172470915Y-136525000D01*
X172466000Y-136475098D01*
X172466000Y-118159902D01*
X172470915Y-118110000D01*
X172451298Y-117910829D01*
X172393202Y-117719313D01*
X172298860Y-117542810D01*
X172171896Y-117388104D01*
X172017190Y-117261140D01*
X171840687Y-117166798D01*
X171649171Y-117108702D01*
X171499902Y-117094000D01*
X171450000Y-117089085D01*
X171400098Y-117094000D01*
X169330841Y-117094000D01*
X169100500Y-116863659D01*
X169100500Y-116816340D01*
X172695000Y-113221841D01*
X172695000Y-138405000D01*
X91465000Y-138405000D01*
X91465000Y-45415565D01*
X98782040Y-45415565D01*
X98849020Y-45655656D01*
X99098048Y-45772756D01*
X99365135Y-45839023D01*
X99640017Y-45851910D01*
X99912133Y-45810922D01*
X100171023Y-45717636D01*
X100286980Y-45655656D01*
X100353960Y-45415565D01*
X106402040Y-45415565D01*
X106469020Y-45655656D01*
X106718048Y-45772756D01*
X106985135Y-45839023D01*
X107260017Y-45851910D01*
X107532133Y-45810922D01*
X107791023Y-45717636D01*
X107906980Y-45655656D01*
X107973960Y-45415565D01*
X107188000Y-44629605D01*
X106402040Y-45415565D01*
X100353960Y-45415565D01*
X99568000Y-44629605D01*
X98782040Y-45415565D01*
X91465000Y-45415565D01*
X91465000Y-44522017D01*
X98166090Y-44522017D01*
X98207078Y-44794133D01*
X98300364Y-45053023D01*
X98362344Y-45168980D01*
X98602435Y-45235960D01*
X99388395Y-44450000D01*
X99747605Y-44450000D01*
X100533565Y-45235960D01*
X100773656Y-45168980D01*
X100890756Y-44919952D01*
X100957023Y-44652865D01*
X100963157Y-44522017D01*
X105786090Y-44522017D01*
X105827078Y-44794133D01*
X105920364Y-45053023D01*
X105982344Y-45168980D01*
X106222435Y-45235960D01*
X107008395Y-44450000D01*
X107367605Y-44450000D01*
X108153565Y-45235960D01*
X108393656Y-45168980D01*
X108510756Y-44919952D01*
X108577023Y-44652865D01*
X108589910Y-44377983D01*
X108548922Y-44105867D01*
X108455636Y-43846977D01*
X108393656Y-43731020D01*
X108153565Y-43664040D01*
X107367605Y-44450000D01*
X107008395Y-44450000D01*
X106222435Y-43664040D01*
X105982344Y-43731020D01*
X105865244Y-43980048D01*
X105798977Y-44247135D01*
X105786090Y-44522017D01*
X100963157Y-44522017D01*
X100969910Y-44377983D01*
X100928922Y-44105867D01*
X100835636Y-43846977D01*
X100773656Y-43731020D01*
X100533565Y-43664040D01*
X99747605Y-44450000D01*
X99388395Y-44450000D01*
X98602435Y-43664040D01*
X98362344Y-43731020D01*
X98245244Y-43980048D01*
X98178977Y-44247135D01*
X98166090Y-44522017D01*
X91465000Y-44522017D01*
X91465000Y-43484435D01*
X98782040Y-43484435D01*
X99568000Y-44270395D01*
X100353960Y-43484435D01*
X106402040Y-43484435D01*
X107188000Y-44270395D01*
X107973960Y-43484435D01*
X107906980Y-43244344D01*
X107657952Y-43127244D01*
X107390865Y-43060977D01*
X107115983Y-43048090D01*
X106843867Y-43089078D01*
X106584977Y-43182364D01*
X106469020Y-43244344D01*
X106402040Y-43484435D01*
X100353960Y-43484435D01*
X100286980Y-43244344D01*
X100037952Y-43127244D01*
X99770865Y-43060977D01*
X99495983Y-43048090D01*
X99223867Y-43089078D01*
X98964977Y-43182364D01*
X98849020Y-43244344D01*
X98782040Y-43484435D01*
X91465000Y-43484435D01*
X91465000Y-39232408D01*
X98171000Y-39232408D01*
X98171000Y-39507592D01*
X98224686Y-39777490D01*
X98329995Y-40031727D01*
X98482880Y-40260535D01*
X98677465Y-40455120D01*
X98906273Y-40608005D01*
X99160510Y-40713314D01*
X99430408Y-40767000D01*
X99705592Y-40767000D01*
X99975490Y-40713314D01*
X100229727Y-40608005D01*
X100458535Y-40455120D01*
X100527655Y-40386000D01*
X106228345Y-40386000D01*
X106297465Y-40455120D01*
X106526273Y-40608005D01*
X106780510Y-40713314D01*
X107050408Y-40767000D01*
X107325592Y-40767000D01*
X107595490Y-40713314D01*
X107849727Y-40608005D01*
X108078535Y-40455120D01*
X108147655Y-40386000D01*
X111710098Y-40386000D01*
X111760000Y-40390915D01*
X111809902Y-40386000D01*
X111959171Y-40371298D01*
X112150687Y-40313202D01*
X112327190Y-40218860D01*
X112481896Y-40091896D01*
X112513712Y-40053128D01*
X113030000Y-39536840D01*
X118999000Y-45505841D01*
X118999001Y-53925088D01*
X118994085Y-53975000D01*
X119003071Y-54066230D01*
X115053712Y-50116872D01*
X115021896Y-50078104D01*
X114867190Y-49951140D01*
X114690687Y-49856798D01*
X114499171Y-49798702D01*
X114349902Y-49784000D01*
X114300000Y-49779085D01*
X114250098Y-49784000D01*
X113896373Y-49784000D01*
X113775275Y-49684618D01*
X113543354Y-49560653D01*
X113291706Y-49484317D01*
X113095579Y-49465000D01*
X112964421Y-49465000D01*
X112768294Y-49484317D01*
X112516646Y-49560653D01*
X112284725Y-49684618D01*
X112081445Y-49851445D01*
X111914618Y-50054725D01*
X111790653Y-50286646D01*
X111714317Y-50538294D01*
X111698962Y-50694198D01*
X110069160Y-52324000D01*
X108393656Y-52324000D01*
X108324536Y-52254880D01*
X108095728Y-52101995D01*
X107841491Y-51996686D01*
X107571593Y-51943000D01*
X107296409Y-51943000D01*
X107026511Y-51996686D01*
X106772274Y-52101995D01*
X106543466Y-52254880D01*
X106474346Y-52324000D01*
X100773656Y-52324000D01*
X100704536Y-52254880D01*
X100475728Y-52101995D01*
X100221491Y-51996686D01*
X99951593Y-51943000D01*
X99676409Y-51943000D01*
X99406511Y-51996686D01*
X99152274Y-52101995D01*
X98923466Y-52254880D01*
X98728881Y-52449465D01*
X98575996Y-52678273D01*
X98470687Y-52932510D01*
X98417001Y-53202408D01*
X98417001Y-53477592D01*
X98470687Y-53747490D01*
X98575996Y-54001727D01*
X98728881Y-54230535D01*
X98923466Y-54425120D01*
X99152274Y-54578005D01*
X99406511Y-54683314D01*
X99676409Y-54737000D01*
X99951593Y-54737000D01*
X100221491Y-54683314D01*
X100475728Y-54578005D01*
X100704536Y-54425120D01*
X100773656Y-54356000D01*
X106474346Y-54356000D01*
X106543466Y-54425120D01*
X106772274Y-54578005D01*
X107026511Y-54683314D01*
X107296409Y-54737000D01*
X107571593Y-54737000D01*
X107841491Y-54683314D01*
X108095728Y-54578005D01*
X108324536Y-54425120D01*
X108393656Y-54356000D01*
X110440098Y-54356000D01*
X110490000Y-54360915D01*
X110539902Y-54356000D01*
X110689171Y-54341298D01*
X110880687Y-54283202D01*
X111057190Y-54188860D01*
X111211896Y-54061896D01*
X111243712Y-54023128D01*
X113135802Y-52131038D01*
X113291706Y-52115683D01*
X113543354Y-52039347D01*
X113775275Y-51915382D01*
X113886919Y-51823759D01*
X125558514Y-63495355D01*
X125558057Y-63500000D01*
X125585764Y-63781309D01*
X125667818Y-64051808D01*
X125801068Y-64301101D01*
X125980392Y-64519608D01*
X126198899Y-64698932D01*
X126331858Y-64770000D01*
X126198899Y-64841068D01*
X125980392Y-65020392D01*
X125977431Y-65024000D01*
X122975841Y-65024000D01*
X119498712Y-61546872D01*
X119466896Y-61508104D01*
X119312190Y-61381140D01*
X119135687Y-61286798D01*
X118944171Y-61228702D01*
X118794902Y-61214000D01*
X118745000Y-61209085D01*
X118695098Y-61214000D01*
X113896373Y-61214000D01*
X113775275Y-61114618D01*
X113543354Y-60990653D01*
X113291706Y-60914317D01*
X113095579Y-60895000D01*
X112964421Y-60895000D01*
X112768294Y-60914317D01*
X112516646Y-60990653D01*
X112284725Y-61114618D01*
X112163627Y-61214000D01*
X111047902Y-61214000D01*
X110998000Y-61209085D01*
X110948098Y-61214000D01*
X110798829Y-61228702D01*
X110607313Y-61286798D01*
X110430810Y-61381140D01*
X110276104Y-61508104D01*
X110244292Y-61546867D01*
X107148160Y-64643000D01*
X107050408Y-64643000D01*
X106780510Y-64696686D01*
X106526273Y-64801995D01*
X106297465Y-64954880D01*
X106228345Y-65024000D01*
X100527655Y-65024000D01*
X100458535Y-64954880D01*
X100229727Y-64801995D01*
X99975490Y-64696686D01*
X99705592Y-64643000D01*
X99430408Y-64643000D01*
X99160510Y-64696686D01*
X98906273Y-64801995D01*
X98677465Y-64954880D01*
X98482880Y-65149465D01*
X98329995Y-65378273D01*
X98224686Y-65632510D01*
X98171000Y-65902408D01*
X98171000Y-66177592D01*
X98224686Y-66447490D01*
X98329995Y-66701727D01*
X98482880Y-66930535D01*
X98677465Y-67125120D01*
X98906273Y-67278005D01*
X99160510Y-67383314D01*
X99430408Y-67437000D01*
X99705592Y-67437000D01*
X99975490Y-67383314D01*
X100229727Y-67278005D01*
X100458535Y-67125120D01*
X100527655Y-67056000D01*
X106228345Y-67056000D01*
X106297465Y-67125120D01*
X106526273Y-67278005D01*
X106780510Y-67383314D01*
X107050408Y-67437000D01*
X107325592Y-67437000D01*
X107595490Y-67383314D01*
X107849727Y-67278005D01*
X108078535Y-67125120D01*
X108273120Y-66930535D01*
X108426005Y-66701727D01*
X108531314Y-66447490D01*
X108585000Y-66177592D01*
X108585000Y-66079840D01*
X111418841Y-63246000D01*
X112163627Y-63246000D01*
X112284725Y-63345382D01*
X112516646Y-63469347D01*
X112768294Y-63545683D01*
X112964421Y-63565000D01*
X113095579Y-63565000D01*
X113291706Y-63545683D01*
X113543354Y-63469347D01*
X113775275Y-63345382D01*
X113896373Y-63246000D01*
X118324160Y-63246000D01*
X121801292Y-66723133D01*
X121833104Y-66761896D01*
X121871865Y-66793706D01*
X121987810Y-66888860D01*
X122164313Y-66983202D01*
X122355829Y-67041298D01*
X122555000Y-67060915D01*
X122604902Y-67056000D01*
X125977431Y-67056000D01*
X125980392Y-67059608D01*
X126198899Y-67238932D01*
X126331858Y-67310000D01*
X126198899Y-67381068D01*
X125980392Y-67560392D01*
X125977431Y-67564000D01*
X120699893Y-67564000D01*
X120649999Y-67559086D01*
X120600105Y-67564000D01*
X120600098Y-67564000D01*
X120470177Y-67576796D01*
X120450828Y-67578702D01*
X120392732Y-67596326D01*
X120259313Y-67636798D01*
X120082810Y-67731140D01*
X119928104Y-67858104D01*
X119896292Y-67896867D01*
X112924198Y-74868962D01*
X112768294Y-74884317D01*
X112516646Y-74960653D01*
X112284725Y-75084618D01*
X112163627Y-75184000D01*
X109777893Y-75184000D01*
X109727999Y-75179086D01*
X109678105Y-75184000D01*
X109678098Y-75184000D01*
X109548177Y-75196796D01*
X109528828Y-75198702D01*
X109479371Y-75213705D01*
X109337313Y-75256798D01*
X109160810Y-75351140D01*
X109006104Y-75478104D01*
X108974293Y-75516866D01*
X107148160Y-77343000D01*
X107050408Y-77343000D01*
X106780510Y-77396686D01*
X106526273Y-77501995D01*
X106297465Y-77654880D01*
X106228345Y-77724000D01*
X100527655Y-77724000D01*
X100458535Y-77654880D01*
X100229727Y-77501995D01*
X99975490Y-77396686D01*
X99705592Y-77343000D01*
X99430408Y-77343000D01*
X99160510Y-77396686D01*
X98906273Y-77501995D01*
X98677465Y-77654880D01*
X98482880Y-77849465D01*
X98329995Y-78078273D01*
X98224686Y-78332510D01*
X98171000Y-78602408D01*
X98171000Y-78877592D01*
X98224686Y-79147490D01*
X98329995Y-79401727D01*
X98482880Y-79630535D01*
X98677465Y-79825120D01*
X98906273Y-79978005D01*
X99160510Y-80083314D01*
X99430408Y-80137000D01*
X99705592Y-80137000D01*
X99975490Y-80083314D01*
X100229727Y-79978005D01*
X100458535Y-79825120D01*
X100527655Y-79756000D01*
X106228345Y-79756000D01*
X106297465Y-79825120D01*
X106526273Y-79978005D01*
X106780510Y-80083314D01*
X107050408Y-80137000D01*
X107325592Y-80137000D01*
X107595490Y-80083314D01*
X107849727Y-79978005D01*
X108078535Y-79825120D01*
X108273120Y-79630535D01*
X108426005Y-79401727D01*
X108531314Y-79147490D01*
X108585000Y-78877592D01*
X108585000Y-78779840D01*
X110148841Y-77216000D01*
X112163627Y-77216000D01*
X112284725Y-77315382D01*
X112516646Y-77439347D01*
X112768294Y-77515683D01*
X112964421Y-77535000D01*
X113095579Y-77535000D01*
X113291706Y-77515683D01*
X113543354Y-77439347D01*
X113775275Y-77315382D01*
X113978555Y-77148555D01*
X114145382Y-76945275D01*
X114269347Y-76713354D01*
X114345683Y-76461706D01*
X114361038Y-76305802D01*
X121070841Y-69596000D01*
X125977431Y-69596000D01*
X125980392Y-69599608D01*
X126198899Y-69778932D01*
X126331858Y-69850000D01*
X126198899Y-69921068D01*
X125980392Y-70100392D01*
X125801068Y-70318899D01*
X125667818Y-70568192D01*
X125585764Y-70838691D01*
X125558057Y-71120000D01*
X125558515Y-71124645D01*
X125516871Y-71166289D01*
X125516866Y-71166293D01*
X124754866Y-71928293D01*
X124716104Y-71960105D01*
X124589140Y-72114811D01*
X124575886Y-72139608D01*
X124494798Y-72291314D01*
X124436701Y-72482831D01*
X124417084Y-72682001D01*
X124422000Y-72731913D01*
X124421999Y-78611160D01*
X112924198Y-90108962D01*
X112768294Y-90124317D01*
X112516646Y-90200653D01*
X112284725Y-90324618D01*
X112163627Y-90424000D01*
X108147655Y-90424000D01*
X108078535Y-90354880D01*
X107849727Y-90201995D01*
X107595490Y-90096686D01*
X107325592Y-90043000D01*
X107050408Y-90043000D01*
X106780510Y-90096686D01*
X106526273Y-90201995D01*
X106297465Y-90354880D01*
X106228345Y-90424000D01*
X100527655Y-90424000D01*
X100458535Y-90354880D01*
X100229727Y-90201995D01*
X99975490Y-90096686D01*
X99705592Y-90043000D01*
X99430408Y-90043000D01*
X99160510Y-90096686D01*
X98906273Y-90201995D01*
X98677465Y-90354880D01*
X98482880Y-90549465D01*
X98329995Y-90778273D01*
X98224686Y-91032510D01*
X98171000Y-91302408D01*
X98171000Y-91577592D01*
X98224686Y-91847490D01*
X98329995Y-92101727D01*
X98482880Y-92330535D01*
X98677465Y-92525120D01*
X98906273Y-92678005D01*
X99160510Y-92783314D01*
X99430408Y-92837000D01*
X99705592Y-92837000D01*
X99975490Y-92783314D01*
X100229727Y-92678005D01*
X100458535Y-92525120D01*
X100527655Y-92456000D01*
X106228345Y-92456000D01*
X106297465Y-92525120D01*
X106526273Y-92678005D01*
X106780510Y-92783314D01*
X107050408Y-92837000D01*
X107325592Y-92837000D01*
X107595490Y-92783314D01*
X107849727Y-92678005D01*
X108078535Y-92525120D01*
X108147655Y-92456000D01*
X112163627Y-92456000D01*
X112284725Y-92555382D01*
X112516646Y-92679347D01*
X112768294Y-92755683D01*
X112964421Y-92775000D01*
X113095579Y-92775000D01*
X113291706Y-92755683D01*
X113543354Y-92679347D01*
X113775275Y-92555382D01*
X113978555Y-92388555D01*
X114145382Y-92185275D01*
X114269347Y-91953354D01*
X114345683Y-91701706D01*
X114361038Y-91545802D01*
X125584144Y-80322697D01*
X125574188Y-80355518D01*
X125561928Y-80480000D01*
X125561928Y-82080000D01*
X125574188Y-82204482D01*
X125610498Y-82324180D01*
X125669463Y-82434494D01*
X125748815Y-82531185D01*
X125845506Y-82610537D01*
X125955820Y-82669502D01*
X126075518Y-82705812D01*
X126200000Y-82718072D01*
X127800000Y-82718072D01*
X127924482Y-82705812D01*
X128044180Y-82669502D01*
X128154494Y-82610537D01*
X128251185Y-82531185D01*
X128330537Y-82434494D01*
X128389502Y-82324180D01*
X128425812Y-82204482D01*
X128438072Y-82080000D01*
X128438072Y-80480000D01*
X128425812Y-80355518D01*
X128389502Y-80235820D01*
X128330537Y-80125506D01*
X128251185Y-80028815D01*
X128154494Y-79949463D01*
X128044180Y-79890498D01*
X127924482Y-79854188D01*
X127906518Y-79852419D01*
X128019608Y-79759608D01*
X128198932Y-79541101D01*
X128332182Y-79291808D01*
X128414236Y-79021309D01*
X128441943Y-78740000D01*
X128414236Y-78458691D01*
X128332182Y-78188192D01*
X128198932Y-77938899D01*
X128019608Y-77720392D01*
X127801101Y-77541068D01*
X127668142Y-77470000D01*
X127801101Y-77398932D01*
X128019608Y-77219608D01*
X128198932Y-77001101D01*
X128332182Y-76751808D01*
X128414236Y-76481309D01*
X128441943Y-76200000D01*
X128414236Y-75918691D01*
X128332182Y-75648192D01*
X128198932Y-75398899D01*
X128019608Y-75180392D01*
X127801101Y-75001068D01*
X127663318Y-74927421D01*
X127855131Y-74812385D01*
X128063519Y-74623414D01*
X128231037Y-74397420D01*
X128351246Y-74143087D01*
X128391904Y-74009039D01*
X128269915Y-73787000D01*
X127127000Y-73787000D01*
X127127000Y-73807000D01*
X126873000Y-73807000D01*
X126873000Y-73787000D01*
X126853000Y-73787000D01*
X126853000Y-73533000D01*
X126873000Y-73533000D01*
X126873000Y-73513000D01*
X127127000Y-73513000D01*
X127127000Y-73533000D01*
X128269915Y-73533000D01*
X128391904Y-73310961D01*
X128351246Y-73176913D01*
X128231037Y-72922580D01*
X128063519Y-72696586D01*
X127855131Y-72507615D01*
X127663318Y-72392579D01*
X127801101Y-72318932D01*
X128019608Y-72139608D01*
X128198932Y-71921101D01*
X128332182Y-71671808D01*
X128414236Y-71401309D01*
X128441943Y-71120000D01*
X128414236Y-70838691D01*
X128332182Y-70568192D01*
X128198932Y-70318899D01*
X128019608Y-70100392D01*
X127801101Y-69921068D01*
X127668142Y-69850000D01*
X127801101Y-69778932D01*
X128019608Y-69599608D01*
X128198932Y-69381101D01*
X128332182Y-69131808D01*
X128414236Y-68861309D01*
X128441943Y-68580000D01*
X128414236Y-68298691D01*
X128332182Y-68028192D01*
X128198932Y-67778899D01*
X128019608Y-67560392D01*
X127801101Y-67381068D01*
X127668142Y-67310000D01*
X127801101Y-67238932D01*
X128019608Y-67059608D01*
X128198932Y-66841101D01*
X128332182Y-66591808D01*
X128414236Y-66321309D01*
X128441943Y-66040000D01*
X128414236Y-65758691D01*
X128332182Y-65488192D01*
X128198932Y-65238899D01*
X128019608Y-65020392D01*
X127801101Y-64841068D01*
X127668142Y-64770000D01*
X127801101Y-64698932D01*
X128019608Y-64519608D01*
X128198932Y-64301101D01*
X128332182Y-64051808D01*
X128414236Y-63781309D01*
X128441943Y-63500000D01*
X128414236Y-63218691D01*
X128332182Y-62948192D01*
X128198932Y-62698899D01*
X128019608Y-62480392D01*
X127801101Y-62301068D01*
X127668142Y-62230000D01*
X127801101Y-62158932D01*
X128019608Y-61979608D01*
X128198932Y-61761101D01*
X128332182Y-61511808D01*
X128414236Y-61241309D01*
X128441943Y-60960000D01*
X128414236Y-60678691D01*
X128332182Y-60408192D01*
X128198932Y-60158899D01*
X128019608Y-59940392D01*
X127801101Y-59761068D01*
X127668142Y-59690000D01*
X127801101Y-59618932D01*
X128019608Y-59439608D01*
X128198932Y-59221101D01*
X128332182Y-58971808D01*
X128414236Y-58701309D01*
X128441943Y-58420000D01*
X128414236Y-58138691D01*
X128332182Y-57868192D01*
X128198932Y-57618899D01*
X128019608Y-57400392D01*
X127801101Y-57221068D01*
X127668142Y-57150000D01*
X127801101Y-57078932D01*
X128019608Y-56899608D01*
X128198932Y-56681101D01*
X128332182Y-56431808D01*
X128414236Y-56161309D01*
X128441943Y-55880000D01*
X128414236Y-55598691D01*
X128332182Y-55328192D01*
X128198932Y-55078899D01*
X128019608Y-54860392D01*
X127801101Y-54681068D01*
X127668142Y-54610000D01*
X127801101Y-54538932D01*
X128019608Y-54359608D01*
X128198932Y-54141101D01*
X128332182Y-53891808D01*
X128414236Y-53621309D01*
X128441943Y-53340000D01*
X128414236Y-53058691D01*
X128332182Y-52788192D01*
X128198932Y-52538899D01*
X128019608Y-52320392D01*
X127801101Y-52141068D01*
X127668142Y-52070000D01*
X127801101Y-51998932D01*
X128019608Y-51819608D01*
X128198932Y-51601101D01*
X128332182Y-51351808D01*
X128414236Y-51081309D01*
X128441943Y-50800000D01*
X128414236Y-50518691D01*
X128332182Y-50248192D01*
X128198932Y-49998899D01*
X128019608Y-49780392D01*
X127801101Y-49601068D01*
X127668142Y-49530000D01*
X127801101Y-49458932D01*
X128019608Y-49279608D01*
X128198932Y-49061101D01*
X128332182Y-48811808D01*
X128414236Y-48541309D01*
X128441943Y-48260000D01*
X128414236Y-47978691D01*
X128332182Y-47708192D01*
X128198932Y-47458899D01*
X128019608Y-47240392D01*
X127801101Y-47061068D01*
X127668142Y-46990000D01*
X127801101Y-46918932D01*
X128019608Y-46739608D01*
X128198932Y-46521101D01*
X128332182Y-46271808D01*
X128414236Y-46001309D01*
X128441943Y-45720000D01*
X128414236Y-45438691D01*
X128332182Y-45168192D01*
X128198932Y-44918899D01*
X128019608Y-44700392D01*
X127801101Y-44521068D01*
X127551808Y-44387818D01*
X127281309Y-44305764D01*
X127070492Y-44285000D01*
X126929508Y-44285000D01*
X126718691Y-44305764D01*
X126448192Y-44387818D01*
X126198899Y-44521068D01*
X125980392Y-44700392D01*
X125801068Y-44918899D01*
X125667818Y-45168192D01*
X125585764Y-45438691D01*
X125558057Y-45720000D01*
X125585764Y-46001309D01*
X125667818Y-46271808D01*
X125801068Y-46521101D01*
X125980392Y-46739608D01*
X126198899Y-46918932D01*
X126331858Y-46990000D01*
X126198899Y-47061068D01*
X125980392Y-47240392D01*
X125801068Y-47458899D01*
X125667818Y-47708192D01*
X125585764Y-47978691D01*
X125558057Y-48260000D01*
X125585764Y-48541309D01*
X125667818Y-48811808D01*
X125801068Y-49061101D01*
X125980392Y-49279608D01*
X126198899Y-49458932D01*
X126331858Y-49530000D01*
X126198899Y-49601068D01*
X125980392Y-49780392D01*
X125801068Y-49998899D01*
X125667818Y-50248192D01*
X125585764Y-50518691D01*
X125558057Y-50800000D01*
X125585764Y-51081309D01*
X125667818Y-51351808D01*
X125801068Y-51601101D01*
X125980392Y-51819608D01*
X126198899Y-51998932D01*
X126331858Y-52070000D01*
X126198899Y-52141068D01*
X125980392Y-52320392D01*
X125801068Y-52538899D01*
X125667818Y-52788192D01*
X125585764Y-53058691D01*
X125558057Y-53340000D01*
X125585764Y-53621309D01*
X125667818Y-53891808D01*
X125801068Y-54141101D01*
X125980392Y-54359608D01*
X126198899Y-54538932D01*
X126331858Y-54610000D01*
X126198899Y-54681068D01*
X125980392Y-54860392D01*
X125801068Y-55078899D01*
X125667818Y-55328192D01*
X125585764Y-55598691D01*
X125558057Y-55880000D01*
X125585764Y-56161309D01*
X125667818Y-56431808D01*
X125801068Y-56681101D01*
X125980392Y-56899608D01*
X126198899Y-57078932D01*
X126331858Y-57150000D01*
X126198899Y-57221068D01*
X125980392Y-57400392D01*
X125801068Y-57618899D01*
X125667818Y-57868192D01*
X125592692Y-58115851D01*
X121031000Y-53554160D01*
X121031000Y-45134902D01*
X121035915Y-45085000D01*
X121016298Y-44885829D01*
X120958202Y-44694313D01*
X120891064Y-44568706D01*
X120863860Y-44517810D01*
X120736896Y-44363104D01*
X120698133Y-44331292D01*
X114361038Y-37994198D01*
X114345683Y-37838294D01*
X114269347Y-37586646D01*
X114145382Y-37354725D01*
X113978555Y-37151445D01*
X113775275Y-36984618D01*
X113543354Y-36860653D01*
X113291706Y-36784317D01*
X113095579Y-36765000D01*
X112964421Y-36765000D01*
X112768294Y-36784317D01*
X112516646Y-36860653D01*
X112284725Y-36984618D01*
X112081445Y-37151445D01*
X111914618Y-37354725D01*
X111790653Y-37586646D01*
X111714317Y-37838294D01*
X111698962Y-37994198D01*
X111339160Y-38354000D01*
X108147655Y-38354000D01*
X108078535Y-38284880D01*
X107849727Y-38131995D01*
X107595490Y-38026686D01*
X107325592Y-37973000D01*
X107050408Y-37973000D01*
X106780510Y-38026686D01*
X106526273Y-38131995D01*
X106297465Y-38284880D01*
X106228345Y-38354000D01*
X100527655Y-38354000D01*
X100458535Y-38284880D01*
X100229727Y-38131995D01*
X99975490Y-38026686D01*
X99705592Y-37973000D01*
X99430408Y-37973000D01*
X99160510Y-38026686D01*
X98906273Y-38131995D01*
X98677465Y-38284880D01*
X98482880Y-38479465D01*
X98329995Y-38708273D01*
X98224686Y-38962510D01*
X98171000Y-39232408D01*
X91465000Y-39232408D01*
X91465000Y-35585000D01*
X172695001Y-35585000D01*
X172695001Y-42988160D01*
M02*
