M48
; DRILL file {KiCad 5.1.4-e60b266~84~ubuntu18.04.1} date seg 21 out 2019 14:57:51 -03
; FORMAT={-:-/ absolute / inch / decimal}
; #@! TF.CreationDate,2019-10-21T14:57:51-03:00
; #@! TF.GenerationSoftware,Kicad,Pcbnew,5.1.4-e60b266~84~ubuntu18.04.1
; #@! TF.FileFunction,Plated,1,2,PTH
FMAT,2
INCH
T1C0.0276
T2C0.0315
T3C0.0394
%
G90
G05
T1
X4.45Y-2.0
X4.45Y-2.2
X4.45Y-3.6
X4.45Y-3.8
X4.45Y-3.0
X4.45Y-3.2
X4.45Y-2.45
X4.45Y-2.65
X4.45Y-1.5
X4.45Y-1.7
T2
X5.0Y-1.8
X5.0Y-1.9
X5.0Y-2.0
X5.0Y-2.1
X5.0Y-2.2
X5.0Y-2.3
X5.0Y-2.4
X5.0Y-2.5
X5.0Y-2.6
X5.0Y-2.7
X5.0Y-2.8
X5.0Y-2.9
X5.0Y-3.0
X5.0Y-3.1
X5.0Y-3.2
X5.6Y-1.8
X5.6Y-1.9
X5.6Y-2.0
X5.6Y-2.1
X5.6Y-2.2
X5.6Y-2.3
X5.6Y-2.4
X5.6Y-2.5
X5.6Y-2.6
X5.6Y-2.7
X5.6Y-2.8
X5.6Y-2.9
X5.6Y-3.0
X5.6Y-3.1
X5.6Y-3.2
T3
X3.9Y-4.7
X3.9Y-4.9
X3.9Y-5.1
X3.92Y-2.6
X3.92Y-2.8
X4.22Y-2.6
X4.22Y-2.8
X3.92Y-3.6
X3.92Y-3.8
X4.22Y-3.6
X4.22Y-3.8
X3.92Y-1.55
X3.92Y-1.75
X4.22Y-1.55
X4.22Y-1.75
X6.6Y-4.6
X6.6Y-4.8
X6.6Y-5.0
X6.6Y-3.6
X6.6Y-3.8
X6.6Y-4.0
X6.6Y-2.6
X6.6Y-2.8
X6.6Y-3.0
X6.6Y-1.55
X6.6Y-1.75
X6.6Y-1.95
X3.92Y-3.1
X3.92Y-3.3
X4.22Y-3.1
X4.22Y-3.3
X3.9297Y-2.1
X3.9297Y-2.3
X4.2297Y-2.1
X4.2297Y-2.3
T0
M30
