G04 #@! TF.GenerationSoftware,KiCad,Pcbnew,5.1.4-e60b266~84~ubuntu18.04.1*
G04 #@! TF.CreationDate,2019-11-04T09:18:10-03:00*
G04 #@! TF.ProjectId,projetoDeee891,70726f6a-6574-46f4-9465-65653839312e,rev?*
G04 #@! TF.SameCoordinates,Original*
G04 #@! TF.FileFunction,Copper,L1,Top*
G04 #@! TF.FilePolarity,Positive*
%FSLAX46Y46*%
G04 Gerber Fmt 4.6, Leading zero omitted, Abs format (unit mm)*
G04 Created by KiCad (PCBNEW 5.1.4-e60b266~84~ubuntu18.04.1) date 2019-11-04 09:18:10*
%MOMM*%
%LPD*%
G04 APERTURE LIST*
%ADD10C,1.651000*%
%ADD11O,1.600000X1.600000*%
%ADD12R,1.600000X1.600000*%
%ADD13C,1.524000*%
%ADD14C,1.400000*%
%ADD15O,1.400000X1.400000*%
G04 APERTURE END LIST*
D10*
X161925000Y-124460000D03*
X161925000Y-119380000D03*
X161925000Y-114300000D03*
D11*
X123190000Y-44450000D03*
X138430000Y-44450000D03*
X123190000Y-80010000D03*
X138430000Y-46990000D03*
X123190000Y-77470000D03*
X138430000Y-49530000D03*
X123190000Y-74930000D03*
X138430000Y-52070000D03*
X123190000Y-72390000D03*
X138430000Y-54610000D03*
X123190000Y-69850000D03*
X138430000Y-57150000D03*
X123190000Y-67310000D03*
X138430000Y-59690000D03*
X123190000Y-64770000D03*
X138430000Y-62230000D03*
X123190000Y-62230000D03*
X138430000Y-64770000D03*
X123190000Y-59690000D03*
X138430000Y-67310000D03*
X123190000Y-57150000D03*
X138430000Y-69850000D03*
X123190000Y-54610000D03*
X138430000Y-72390000D03*
X123190000Y-52070000D03*
X138430000Y-74930000D03*
X123190000Y-49530000D03*
X138430000Y-77470000D03*
X123190000Y-46990000D03*
D12*
X138430000Y-80010000D03*
D13*
X164345999Y-56515000D03*
X164345999Y-51435000D03*
X156725999Y-51435000D03*
X156725999Y-56515000D03*
X156337000Y-69215000D03*
X156337000Y-64135000D03*
X163957000Y-64135000D03*
X163957000Y-69215000D03*
D14*
X151130000Y-53975000D03*
D15*
X151130000Y-59055000D03*
D13*
X163957000Y-80645000D03*
X163957000Y-75565000D03*
X156337000Y-75565000D03*
X156337000Y-80645000D03*
D10*
X108585000Y-64770000D03*
X108585000Y-69850000D03*
X108585000Y-74930000D03*
X108585000Y-100330000D03*
X108585000Y-95250000D03*
X108585000Y-90170000D03*
D13*
X156337000Y-44450000D03*
X156337000Y-39370000D03*
X163957000Y-39370000D03*
X163957000Y-44450000D03*
X155702000Y-96520000D03*
X155702000Y-91440000D03*
X163322000Y-91440000D03*
X163322000Y-96520000D03*
D10*
X108585000Y-48895000D03*
X108585000Y-43815000D03*
X108585000Y-38735000D03*
D15*
X150495000Y-45720000D03*
D14*
X150495000Y-40640000D03*
D10*
X108585000Y-114935000D03*
X108585000Y-120015000D03*
X108585000Y-125095000D03*
D15*
X150495000Y-83185000D03*
D14*
X150495000Y-78105000D03*
X149860000Y-91440000D03*
D15*
X149860000Y-96520000D03*
D14*
X150495000Y-65405000D03*
D15*
X150495000Y-70485000D03*
M02*
