M48
; DRILL file {KiCad 5.1.4-e60b266~84~ubuntu18.04.1} date seg 04 nov 2019 09:18:12 -03
; FORMAT={-:-/ absolute / inch / decimal}
; #@! TF.CreationDate,2019-11-04T09:18:12-03:00
; #@! TF.GenerationSoftware,Kicad,Pcbnew,5.1.4-e60b266~84~ubuntu18.04.1
; #@! TF.FileFunction,Plated,1,2,PTH
FMAT,2
INCH
T1C0.0276
T2C0.0315
T3C0.0394
%
G90
G05
T1
X5.925Y-3.075
X5.925Y-3.275
X5.95Y-2.125
X5.95Y-2.325
X5.9Y-3.6
X5.9Y-3.8
X5.925Y-2.575
X5.925Y-2.775
X5.925Y-1.6
X5.925Y-1.8
T2
X4.85Y-1.75
X4.85Y-1.85
X4.85Y-1.95
X4.85Y-2.05
X4.85Y-2.15
X4.85Y-2.25
X4.85Y-2.35
X4.85Y-2.45
X4.85Y-2.55
X4.85Y-2.65
X4.85Y-2.75
X4.85Y-2.85
X4.85Y-2.95
X4.85Y-3.05
X4.85Y-3.15
X5.45Y-1.75
X5.45Y-1.85
X5.45Y-1.95
X5.45Y-2.05
X5.45Y-2.15
X5.45Y-2.25
X5.45Y-2.35
X5.45Y-2.45
X5.45Y-2.55
X5.45Y-2.65
X5.45Y-2.75
X5.45Y-2.85
X5.45Y-2.95
X5.45Y-3.05
X5.45Y-3.15
T3
X6.155Y-1.55
X6.155Y-1.75
X6.455Y-1.55
X6.455Y-1.75
X4.275Y-3.55
X4.275Y-3.75
X4.275Y-3.95
X6.13Y-3.6
X6.13Y-3.8
X6.43Y-3.6
X6.43Y-3.8
X4.275Y-1.525
X4.275Y-1.725
X4.275Y-1.925
X4.275Y-2.55
X4.275Y-2.75
X4.275Y-2.95
X6.1703Y-2.025
X6.1703Y-2.225
X6.4703Y-2.025
X6.4703Y-2.225
X6.155Y-2.525
X6.155Y-2.725
X6.455Y-2.525
X6.455Y-2.725
X4.275Y-4.525
X4.275Y-4.725
X4.275Y-4.925
X6.155Y-2.975
X6.155Y-3.175
X6.455Y-2.975
X6.455Y-3.175
X6.375Y-4.5
X6.375Y-4.7
X6.375Y-4.9
T0
M30
